<?xml version="1.0" encoding="iso-8859-1"?>
<!-- Generator: Adobe Illustrator 19.0.0, SVG Export Plug-In . SVG Version: 6.00 Build 0)  -->
<svg xmlns="http://www.w3.org/2000/svg" xmlns:xlink="http://www.w3.org/1999/xlink" version="1.1" id="Layer_1" x="0px" y="0px" viewBox="0 0 512 512" style="enable-background:new 0 0 512 512;" xml:space="preserve">
<path style="fill:#C1C1C1;" d="M486.957,503.652c0,4.61-3.738,8.348-8.348,8.348H33.391c-4.61,0-8.348-3.738-8.348-8.348  s3.738-8.348,8.348-8.348h445.217C483.219,495.305,486.957,499.042,486.957,503.652z"/>
<path style="fill:#5B7A7F;" d="M433.132,38.002L322.783,148.351v29.736v22.261H189.218v-22.261v-29.736L78.868,38.002  c-8.693-8.694-8.693-22.788,0-31.481l0,0c8.693-8.694,22.788-8.694,31.481,0l114.384,114.384c8.292,8.292,19.539,12.95,31.266,12.95  c11.727,0,22.974-4.658,31.267-12.95L401.651,6.52c8.693-8.694,22.788-8.694,31.481,0l0,0  C441.826,15.213,441.826,29.309,433.132,38.002z"/>
<path style="fill:#F4C064;" d="M300.522,422.957c0,24.588-19.933,44.522-44.522,44.522s-44.522-19.933-44.522-44.522  s19.933-44.522,44.522-44.522S300.522,398.369,300.522,422.957z M144.696,322.783h-44.522v166.957  c0,12.295,9.966,22.261,22.261,22.261l0,0c12.295,0,22.261-9.966,22.261-22.261V322.783z M367.304,489.739  c0,12.295,9.966,22.261,22.261,22.261l0,0c12.295,0,22.261-9.966,22.261-22.261V322.783h-44.522V489.739z"/>
<path style="fill:#F4AB53;" d="M256,378.435v89.043c-24.588,0-44.522-19.933-44.522-44.522S231.412,378.435,256,378.435z"/>
<path style="fill:#8E5B8E;" d="M122.435,300.522h111.304v44.522H100.174v-22.261C100.174,310.488,110.14,300.522,122.435,300.522z   M389.565,300.522H289.391v44.522h122.435v-22.261C411.826,310.488,401.86,300.522,389.565,300.522z"/>
<path style="fill:#AF7AAE;" d="M289.391,345.044h-66.783c-36.883,0-66.783-29.9-66.783-66.783v-77.913  c0-12.295,9.966-22.261,22.261-22.261h155.826c12.295,0,22.261,9.966,22.261,22.261v77.913  C356.174,315.144,326.274,345.044,289.391,345.044z"/>
<g>
</g>
<g>
</g>
<g>
</g>
<g>
</g>
<g>
</g>
<g>
</g>
<g>
</g>
<g>
</g>
<g>
</g>
<g>
</g>
<g>
</g>
<g>
</g>
<g>
</g>
<g>
</g>
<g>
</g>
</svg>
