<?xml version="1.0" encoding="iso-8859-1"?>
<!-- Generator: Adobe Illustrator 19.0.0, SVG Export Plug-In . SVG Version: 6.00 Build 0)  -->
<svg xmlns="http://www.w3.org/2000/svg" xmlns:xlink="http://www.w3.org/1999/xlink" version="1.1" id="Layer_1" x="0px" y="0px" viewBox="0 0 512 512" style="enable-background:new 0 0 512 512;" xml:space="preserve">
<path style="fill:#84D88B;" d="M478.609,155.826h-55.652V77.913h55.652c6.147,0,11.13,4.983,11.13,11.13v55.652  C489.739,150.843,484.756,155.826,478.609,155.826z"/>
<path style="fill:#FF8355;" d="M500.87,100.174h-66.783V22.261h66.783c6.147,0,11.13,4.983,11.13,11.13v55.652  C512,95.191,507.017,100.174,500.87,100.174z"/>
<path style="fill:#B28D5B;" d="M422.957,512H22.261C9.966,512,0,502.034,0,489.739V22.261C0,9.966,9.966,0,22.261,0h400.696  c12.295,0,22.261,9.966,22.261,22.261v467.478C445.217,502.034,435.251,512,422.957,512z"/>
<path style="fill:#99774F;" d="M22.261,0h44.522v512H22.261C9.966,512,0,502.034,0,489.739V22.261C0,9.966,9.966,0,22.261,0z   M467.478,189.217H322.783C285.9,189.217,256,219.117,256,256l0,0c0,36.883,29.9,66.783,66.783,66.783h144.696  c12.295,0,22.261-9.966,22.261-22.261v-89.043C489.739,199.184,479.773,189.217,467.478,189.217z"/>
<path style="fill:#F4C064;" d="M356.174,256c0,15.368-12.458,27.826-27.826,27.826S300.522,271.368,300.522,256  s12.458-27.826,27.826-27.826S356.174,240.632,356.174,256z"/>
<path style="fill:#FFE77C;" d="M345.043,256c0,9.22-7.475,16.696-16.696,16.696S311.652,265.22,311.652,256  s7.475-16.696,16.696-16.696S345.043,246.78,345.043,256z"/>
<g>
</g>
<g>
</g>
<g>
</g>
<g>
</g>
<g>
</g>
<g>
</g>
<g>
</g>
<g>
</g>
<g>
</g>
<g>
</g>
<g>
</g>
<g>
</g>
<g>
</g>
<g>
</g>
<g>
</g>
</svg>
