<?xml version="1.0" encoding="iso-8859-1"?>
<!-- Generator: Adobe Illustrator 19.0.0, SVG Export Plug-In . SVG Version: 6.00 Build 0)  -->
<svg xmlns="http://www.w3.org/2000/svg" xmlns:xlink="http://www.w3.org/1999/xlink" version="1.1" id="Layer_1" x="0px" y="0px" viewBox="0 0 512 512" style="enable-background:new 0 0 512 512;" xml:space="preserve">
<path style="fill:#99774F;" d="M500.87,256v211.478c0,24.588-19.933,44.522-44.522,44.522H300.522  C275.933,512,256,492.066,256,467.478C256,492.066,236.066,512,211.478,512H55.652c-24.588,0-44.522-19.933-44.522-44.522V256  c0-24.588,19.933-44.522,44.522-44.522h155.826C236.066,211.478,256,231.412,256,256c0-24.588,19.933-44.522,44.522-44.522h155.826  C480.936,211.478,500.87,231.412,500.87,256z"/>
<path style="fill:#7F5D3B;" d="M256,256v211.478C256,492.066,236.066,512,211.478,512H55.652c-24.588,0-44.522-19.933-44.522-44.522  V256c0-24.588,19.933-44.522,44.522-44.522h155.826C236.066,211.478,256,231.412,256,256z"/>
<path style="fill:#6B4C2F;" d="M500.87,345.043H11.13v-66.783H500.87V345.043z"/>
<g>
	<path style="fill:#7F5D3B;" d="M500.87,345.043H256v-66.783h244.87V345.043z"/>
	<path style="fill:#7F5D3B;" d="M166.957,0v133.565h-44.522V44.522C122.435,19.933,142.368,0,166.957,0z M345.043,0v133.565h44.522   V44.522C389.565,19.933,369.632,0,345.043,0z"/>
</g>
<path style="fill:#99774F;" d="M389.565,44.522h-267.13C122.435,19.933,142.368,0,166.957,0h178.087  C369.632,0,389.565,19.933,389.565,44.522z"/>
<path style="fill:#B28D5B;" d="M489.739,300.522H22.261C9.966,300.522,0,290.556,0,278.261V155.826  c0-24.588,19.933-44.522,44.522-44.522h422.957c24.588,0,44.522,19.933,44.522,44.522v122.435  C512,290.556,502.034,300.522,489.739,300.522z"/>
<path style="fill:#CEA05D;" d="M172.522,267.13v111.304c0,12.295-9.966,22.261-22.261,22.261H116.87  c-12.295,0-22.261-9.966-22.261-22.261V267.13c0-6.147,4.983-11.13,11.13-11.13h55.652C167.539,256,172.522,260.983,172.522,267.13z   M406.261,256h-55.652c-6.147,0-11.13,4.983-11.13,11.13v111.304c0,12.295,9.966,22.261,22.261,22.261h33.391  c12.295,0,22.261-9.966,22.261-22.261V267.13C417.391,260.983,412.408,256,406.261,256z"/>
<path style="fill:#F4C064;" d="M94.609,345.043h77.913v33.391c0,12.295-9.966,22.261-22.261,22.261H116.87  c-12.295,0-22.261-9.966-22.261-22.261V345.043z M339.478,345.043v33.391c0,12.295,9.966,22.261,22.261,22.261h33.391  c12.295,0,22.261-9.966,22.261-22.261v-33.391H339.478z"/>
<path style="fill:#FFE77C;" d="M133.565,345.043h38.957v33.391c0,12.295-9.966,22.261-22.261,22.261h-16.696V345.043z   M378.435,345.043v55.652h16.696c12.295,0,22.261-9.966,22.261-22.261v-33.391H378.435z"/>
<g>
</g>
<g>
</g>
<g>
</g>
<g>
</g>
<g>
</g>
<g>
</g>
<g>
</g>
<g>
</g>
<g>
</g>
<g>
</g>
<g>
</g>
<g>
</g>
<g>
</g>
<g>
</g>
<g>
</g>
</svg>
