<?xml version="1.0" encoding="iso-8859-1"?>
<!-- Generator: Adobe Illustrator 19.0.0, SVG Export Plug-In . SVG Version: 6.00 Build 0)  -->
<svg xmlns="http://www.w3.org/2000/svg" xmlns:xlink="http://www.w3.org/1999/xlink" version="1.1" id="Layer_1" x="0px" y="0px" viewBox="0 0 512 512" style="enable-background:new 0 0 512 512;" xml:space="preserve">
<path style="fill:#99774F;" d="M512,100.174v367.304C512,492.066,492.066,512,467.478,512H44.522C19.933,512,0,492.066,0,467.478  V100.174c0-24.588,19.933-44.522,44.522-44.522h422.957C492.066,55.652,512,75.586,512,100.174z"/>
<path style="fill:#FFF6B6;" d="M467.478,111.304v333.913c0,12.295-9.966,22.261-22.261,22.261H66.783  c-12.295,0-22.261-9.966-22.261-22.261V111.304c0-12.295,9.966-22.261,22.261-22.261h378.435  C457.512,89.043,467.478,99.01,467.478,111.304z"/>
<path style="fill:#FF8355;" d="M467.478,55.652v55.652H44.522V55.652c0-12.295,9.966-22.261,22.261-22.261h378.435  C457.512,33.391,467.478,43.357,467.478,55.652z M150.261,222.609h-44.522c-9.22,0-16.696,7.475-16.696,16.696  S96.519,256,105.739,256h44.522c9.22,0,16.696-7.475,16.696-16.696S159.481,222.609,150.261,222.609z M406.261,300.522h-44.522  c-9.22,0-16.696,7.475-16.696,16.696s7.475,16.696,16.696,16.696h44.522c9.22,0,16.696-7.475,16.696-16.696  S415.481,300.522,406.261,300.522z"/>
<path style="fill:#F4C064;" d="M122.435,50.087V16.696C122.435,7.475,129.91,0,139.13,0c9.22,0,16.696,7.475,16.696,16.696v33.391  c0,9.22-7.475,16.696-16.696,16.696C129.91,66.783,122.435,59.307,122.435,50.087z M372.87,66.783  c9.22,0,16.696-7.475,16.696-16.696V16.696C389.565,7.475,382.09,0,372.87,0c-9.22,0-16.696,7.475-16.696,16.696v33.391  C356.174,59.307,363.649,66.783,372.87,66.783z M256,66.783c9.22,0,16.696-7.475,16.696-16.696V16.696C272.696,7.475,265.22,0,256,0  s-16.696,7.475-16.696,16.696v33.391C239.304,59.307,246.78,66.783,256,66.783z M150.261,378.435h-44.522  c-9.22,0-16.696,7.475-16.696,16.696c0,9.22,7.475,16.696,16.696,16.696h44.522c9.22,0,16.696-7.475,16.696-16.696  C166.957,385.91,159.481,378.435,150.261,378.435z M150.261,300.522h-44.522c-9.22,0-16.696,7.475-16.696,16.696  s7.475,16.696,16.696,16.696h44.522c9.22,0,16.696-7.475,16.696-16.696S159.481,300.522,150.261,300.522z M361.739,256h44.522  c9.22,0,16.696-7.475,16.696-16.696s-7.475-16.696-16.696-16.696h-44.522c-9.22,0-16.696,7.475-16.696,16.696  S352.519,256,361.739,256z M278.261,378.435h-44.522c-9.22,0-16.696,7.475-16.696,16.696c0,9.22,7.475,16.696,16.696,16.696h44.522  c9.22,0,16.696-7.475,16.696-16.696C294.957,385.91,287.481,378.435,278.261,378.435z M322.783,158.609H189.217  c-4.61,0-8.348,3.738-8.348,8.348s3.738,8.348,8.348,8.348h133.565c4.61,0,8.348-3.738,8.348-8.348S327.393,158.609,322.783,158.609  z M406.261,378.435h-44.522c-9.22,0-16.696,7.475-16.696,16.696c0,9.22,7.475,16.696,16.696,16.696h44.522  c9.22,0,16.696-7.475,16.696-16.696C422.957,385.91,415.481,378.435,406.261,378.435z M278.261,300.522h-44.522  c-9.22,0-16.696,7.475-16.696,16.696s7.475,16.696,16.696,16.696h44.522c9.22,0,16.696-7.475,16.696-16.696  S287.481,300.522,278.261,300.522z M278.261,222.609h-44.522c-9.22,0-16.696,7.475-16.696,16.696S224.519,256,233.739,256h44.522  c9.22,0,16.696-7.475,16.696-16.696S287.481,222.609,278.261,222.609z"/>
<g>
</g>
<g>
</g>
<g>
</g>
<g>
</g>
<g>
</g>
<g>
</g>
<g>
</g>
<g>
</g>
<g>
</g>
<g>
</g>
<g>
</g>
<g>
</g>
<g>
</g>
<g>
</g>
<g>
</g>
</svg>
