<?xml version="1.0" encoding="iso-8859-1"?>
<!-- Generator: Adobe Illustrator 19.0.0, SVG Export Plug-In . SVG Version: 6.00 Build 0)  -->
<svg xmlns="http://www.w3.org/2000/svg" xmlns:xlink="http://www.w3.org/1999/xlink" version="1.1" id="Layer_1" x="0px" y="0px" viewBox="0 0 512 512" style="enable-background:new 0 0 512 512;" xml:space="preserve">
<path style="fill:#C1C1C1;" d="M133.565,442.435c0,4.61-3.738,8.348-8.348,8.348H52.87c-4.61,0-8.348-3.738-8.348-8.348  s3.738-8.348,8.348-8.348h72.348C129.828,434.087,133.565,437.825,133.565,442.435z M19.478,434.087H8.348  c-4.61,0-8.348,3.738-8.348,8.348s3.738,8.348,8.348,8.348h11.13c4.61,0,8.348-3.738,8.348-8.348S24.088,434.087,19.478,434.087z   M475.826,434.087h-267.13c-4.61,0-8.348,3.738-8.348,8.348s3.738,8.348,8.348,8.348h267.13c4.61,0,8.348-3.738,8.348-8.348  S480.436,434.087,475.826,434.087z"/>
<path style="fill:#D7F3FF;" d="M467.478,261.565v38.957H0v-38.957V150.261c0-49.178,39.866-89.043,89.043-89.043h122.05  c42.872,0,83.85,17.664,113.288,48.833L467.478,261.565z"/>
<path style="fill:#B5E1F4;" d="M144.696,289.391H0v-139.13c0-49.178,39.866-89.043,89.043-89.043h55.652V289.391z"/>
<path style="fill:#AF7AAE;" d="M0,261.565h467.478c24.588,0,44.522,19.933,44.522,44.522v22.261c0,36.883-29.9,66.783-66.783,66.783  H66.783C29.9,395.13,0,365.231,0,328.348V261.565z"/>
<path style="fill:#8E5B8E;" d="M509.409,291.105c1.673,4.683,2.591,9.724,2.591,14.982v22.261c0,36.883-29.9,66.783-66.783,66.783  H66.783C29.9,395.13,0,365.231,0,328.348v-55.652c0,36.883,29.9,66.783,66.783,66.783h378.435  C475.711,339.478,501.414,319.032,509.409,291.105z"/>
<path style="fill:#93D6BB;" d="M189.217,389.565c0,33.81-27.408,61.217-61.217,61.217s-61.217-27.408-61.217-61.217  S94.19,328.348,128,328.348S189.217,355.755,189.217,389.565z M395.13,328.348c-33.81,0-61.217,27.408-61.217,61.217  s27.408,61.217,61.217,61.217s61.217-27.408,61.217-61.217S428.94,328.348,395.13,328.348z"/>
<path style="fill:#5B7A7F;" d="M152.487,389.565c0,13.523-10.963,24.487-24.487,24.487s-24.487-10.963-24.487-24.487  c0-13.523,10.963-24.487,24.487-24.487S152.487,376.042,152.487,389.565z M395.13,365.078c-13.523,0-24.487,10.963-24.487,24.487  c0,13.523,10.963,24.487,24.487,24.487c13.523,0,24.487-10.963,24.487-24.487C419.617,376.042,408.654,365.078,395.13,365.078z"/>
<path style="fill:#8E5B8E;" d="M308.87,294.957c0,4.61-3.738,8.348-8.348,8.348h-22.261c-4.61,0-8.348-3.738-8.348-8.348  s3.738-8.348,8.348-8.348h22.261C305.132,286.609,308.87,290.346,308.87,294.957z M378.435,228.174h-33.391  c-12.295,0-22.261,9.966-22.261,22.261l0,0c0,12.295,9.966,22.261,22.261,22.261h33.391c12.295,0,22.261-9.966,22.261-22.261l0,0  C400.696,238.14,390.729,228.174,378.435,228.174z"/>
<g>
</g>
<g>
</g>
<g>
</g>
<g>
</g>
<g>
</g>
<g>
</g>
<g>
</g>
<g>
</g>
<g>
</g>
<g>
</g>
<g>
</g>
<g>
</g>
<g>
</g>
<g>
</g>
<g>
</g>
</svg>
