<?xml version="1.0" encoding="iso-8859-1"?>
<!-- Generator: Adobe Illustrator 19.0.0, SVG Export Plug-In . SVG Version: 6.00 Build 0)  -->
<svg xmlns="http://www.w3.org/2000/svg" xmlns:xlink="http://www.w3.org/1999/xlink" version="1.1" id="Layer_1" x="0px" y="0px" viewBox="0 0 512 512" style="enable-background:new 0 0 512 512;" xml:space="preserve">
<path style="fill:#84D88B;" d="M378.435,300.522h-244.87v-89.043h244.87V300.522z"/>
<path style="fill:#91F18B;" d="M512,256l-11.13,122.435c0,12.295-9.966,22.261-22.261,22.261H378.435  c-12.295,0-22.261-9.966-22.261-22.261V256V133.565c0-12.295,9.966-22.261,22.261-22.261h100.174  c12.295,0,22.261,9.966,22.261,22.261L512,256z M133.565,111.304H33.391c-12.295,0-22.261,9.966-22.261,22.261L0,256l11.13,122.435  c0,12.295,9.966,22.261,22.261,22.261h100.174c12.295,0,22.261-9.966,22.261-22.261V256V133.565  C155.826,121.271,145.86,111.304,133.565,111.304z"/>
<path style="fill:#BBFFAB;" d="M155.826,133.565v22.261H9.107l2.024-22.261c0-12.295,9.966-22.261,22.261-22.261h100.174  C145.86,111.304,155.826,121.271,155.826,133.565z M500.87,133.565c0-12.295-9.966-22.261-22.261-22.261H378.435  c-12.295,0-22.261,9.966-22.261,22.261v22.261h146.719L500.87,133.565z"/>
<path style="fill:#5F8E5F;" d="M367.304,300.522H144.696V256h222.609V300.522z"/>
<path style="fill:#6BAF6E;" d="M0,256h155.826v122.435c0,12.295-9.966,22.261-22.261,22.261H33.391  c-12.295,0-22.261-9.966-22.261-22.261L0,256z M356.174,256v122.435c0,12.295,9.966,22.261,22.261,22.261h100.174  c12.295,0,22.261-9.966,22.261-22.261L512,256H356.174z"/>
<path style="fill:#5F8E5F;" d="M9.107,356.174h146.719v22.261c0,12.295-9.966,22.261-22.261,22.261H33.391  c-12.295,0-22.261-9.966-22.261-22.261L9.107,356.174z M356.174,356.174v22.261c0,12.295,9.966,22.261,22.261,22.261h100.174  c12.295,0,22.261-9.966,22.261-22.261l2.023-22.261H356.174z"/>
<g>
</g>
<g>
</g>
<g>
</g>
<g>
</g>
<g>
</g>
<g>
</g>
<g>
</g>
<g>
</g>
<g>
</g>
<g>
</g>
<g>
</g>
<g>
</g>
<g>
</g>
<g>
</g>
<g>
</g>
</svg>
