<?xml version="1.0" encoding="iso-8859-1"?>
<!-- Generator: Adobe Illustrator 19.0.0, SVG Export Plug-In . SVG Version: 6.00 Build 0)  -->
<svg xmlns="http://www.w3.org/2000/svg" xmlns:xlink="http://www.w3.org/1999/xlink" version="1.1" id="Layer_1" x="0px" y="0px" viewBox="0 0 512 512" style="enable-background:new 0 0 512 512;" xml:space="preserve">
<path style="fill:#90B5BF;" d="M256,189.217v133.565H77.913c-12.295,0-22.261-9.966-22.261-22.261V189.217  c0-36.883,29.9-66.783,66.783-66.783h66.783C226.1,122.435,256,152.334,256,189.217z"/>
<path style="fill:#769CA5;" d="M155.826,322.783H77.913c-12.295,0-22.261-9.966-22.261-22.261V189.217  c0-36.883,29.9-66.783,66.783-66.783h33.391V322.783z"/>
<path style="fill:#F4C064;" d="M256,333.913c0,12.295-9.966,22.261-22.261,22.261l0,0c-12.295,0-22.261-9.966-22.261-22.261V222.609  c0-6.147,4.983-11.13,11.13-11.13H256V333.913z"/>
<path style="fill:#EFDDAB;" d="M500.87,512H22.261c-6.147,0-11.13-4.983-11.13-11.13V333.913c0-6.147,4.983-11.13,11.13-11.13  H500.87c6.147,0,11.13,4.983,11.13,11.13V500.87C512,507.017,507.017,512,500.87,512z"/>
<path style="fill:#D199D1;" d="M474.99,200.348V256l-34.852,113.267c-5.748,18.681-23.008,31.429-42.553,31.429H278.261V256h29.773  l19.685-147.637c1.474-11.059,10.908-19.319,22.065-19.319h13.902C425.157,89.043,474.99,138.876,474.99,200.348z"/>
<path style="fill:#AF7AAE;" d="M440.139,369.267c-5.748,18.681-23.008,31.429-42.553,31.429H218.482  c-19.545,0-36.805-12.748-42.553-31.429l-25.987-84.46C145.536,270.493,156.24,256,171.217,256H474.99L440.139,369.267z"/>
<path style="fill:#8E5B8E;" d="M308.034,400.696h-89.552c-19.545,0-36.805-12.748-42.553-31.429l-25.987-84.46  C145.536,270.493,156.24,256,171.217,256h136.816V400.696z"/>
<path style="fill:#FC758E;" d="M476.998,304.535l-21.518,55.652c-1.658,4.289-5.783,7.117-10.381,7.117H171.734  c-4.97,0-9.337-3.295-10.702-8.073l-15.901-55.652c-2.031-7.11,3.307-14.188,10.702-14.188h310.784  C474.437,289.391,479.819,297.243,476.998,304.535z"/>
<path style="fill:#FF9CAB;" d="M476.998,304.535l-21.518,55.652c-1.658,4.289-5.783,7.117-10.381,7.117H308.034v-77.913h158.584  C474.437,289.391,479.819,297.243,476.998,304.535z"/>
<path style="fill:#F4C064;" d="M200.348,44.522c0,24.588-19.934,44.522-44.522,44.522s-44.522-19.933-44.522-44.522  S131.238,0,155.826,0S200.348,19.933,200.348,44.522z M155.826,289.391h-55.652v-66.783c0-6.147-4.983-11.13-11.13-11.13H55.652  v100.174c0,12.295,9.966,22.261,22.261,22.261h77.913c12.295,0,22.261-9.966,22.261-22.261l0,0  C178.087,299.357,168.121,289.391,155.826,289.391z"/>
<path style="fill:#F4AB53;" d="M155.826,0v89.043c-24.588,0-44.522-19.933-44.522-44.522S131.238,0,155.826,0z"/>
<path style="fill:#91F18B;" d="M100.174,434.087L100.174,434.087v11.13H11.13v-11.13l0,0c0-18.682,11.512-34.667,27.826-41.273  v-14.379c0-9.22,7.475-16.696,16.696-16.696s16.696,7.475,16.696,16.696v14.379C88.662,399.42,100.174,415.405,100.174,434.087z"/>
<path style="fill:#BBFFAB;" d="M100.174,434.087L100.174,434.087v11.13H55.652v-11.13v-72.348c9.22,0,16.696,7.475,16.696,16.696  v14.379C88.662,399.42,100.174,415.405,100.174,434.087z"/>
<path style="fill:#82CEAD;" d="M111.304,445.217v55.652c0,6.147-4.983,11.13-11.13,11.13H11.13C4.983,512,0,507.017,0,500.87  v-55.652c0-6.147,4.983-11.13,11.13-11.13h89.043C106.321,434.087,111.304,439.07,111.304,445.217z"/>
<path style="fill:#64AF8F;" d="M66.783,512H11.13C4.983,512,0,507.017,0,500.87v-55.652c0-6.147,4.983-11.13,11.13-11.13h44.522  v11.13v22.261v33.391C55.652,507.017,60.635,512,66.783,512z"/>
<path style="fill:#B5E1F4;" d="M41.739,461.913v22.261c0,4.61-3.738,8.348-8.348,8.348s-8.348-3.738-8.348-8.348v-22.261  c0-4.61,3.738-8.348,8.348-8.348C38.002,453.565,41.739,457.303,41.739,461.913z"/>
<g>
</g>
<g>
</g>
<g>
</g>
<g>
</g>
<g>
</g>
<g>
</g>
<g>
</g>
<g>
</g>
<g>
</g>
<g>
</g>
<g>
</g>
<g>
</g>
<g>
</g>
<g>
</g>
<g>
</g>
</svg>
