<?xml version="1.0" encoding="iso-8859-1"?>
<!-- Generator: Adobe Illustrator 19.0.0, SVG Export Plug-In . SVG Version: 6.00 Build 0)  -->
<svg xmlns="http://www.w3.org/2000/svg" xmlns:xlink="http://www.w3.org/1999/xlink" version="1.1" id="Layer_1" x="0px" y="0px" viewBox="0 0 512 512" style="enable-background:new 0 0 512 512;" xml:space="preserve">
<path style="fill:#9B9B9B;" d="M378.435,512h-244.87c-12.295,0-22.261-9.966-22.261-22.261l-11.13-333.913h311.652l-11.13,333.913  C400.696,502.034,390.729,512,378.435,512z"/>
<path style="fill:#666666;" d="M136.348,64V30.609C136.348,13.731,150.078,0,166.957,0h178.087  c16.878,0,30.609,13.731,30.609,30.609V64c0,4.61-3.738,8.348-8.348,8.348c-4.61,0-8.348-3.738-8.348-8.348V30.609  c0-7.672-6.241-13.913-13.913-13.913H166.957c-7.672,0-13.913,6.241-13.913,13.913V64c0,4.61-3.738,8.348-8.348,8.348  C140.085,72.348,136.348,68.61,136.348,64z M189.217,214.261c-4.61,0-8.348,3.738-8.348,8.348v211.478  c0,4.61,3.738,8.348,8.348,8.348c4.61,0,8.348-3.738,8.348-8.348V222.609C197.565,217.998,193.828,214.261,189.217,214.261z   M322.783,214.261c-4.61,0-8.348,3.738-8.348,8.348v211.478c0,4.61,3.738,8.348,8.348,8.348s8.348-3.738,8.348-8.348V222.609  C331.13,217.998,327.393,214.261,322.783,214.261z M256,214.261c-4.61,0-8.348,3.738-8.348,8.348v211.478  c0,4.61,3.738,8.348,8.348,8.348s8.348-3.738,8.348-8.348V222.609C264.348,217.998,260.61,214.261,256,214.261z M100.174,133.565  v22.261l0.742,22.261h310.168l0.741-22.261v-22.261H100.174z"/>
<path style="fill:#C1C1C1;" d="M411.826,155.826H100.174c-12.295,0-22.261-9.966-22.261-22.261V77.913  c0-12.295,9.966-22.261,22.261-22.261h311.652c12.295,0,22.261,9.966,22.261,22.261v55.652  C434.087,145.86,424.121,155.826,411.826,155.826z"/>
<path style="fill:#DBDBDB;" d="M434.087,77.913v22.261H77.913V77.913c0-12.295,9.966-22.261,22.261-22.261h311.652  C424.121,55.652,434.087,65.618,434.087,77.913z"/>
<g>
</g>
<g>
</g>
<g>
</g>
<g>
</g>
<g>
</g>
<g>
</g>
<g>
</g>
<g>
</g>
<g>
</g>
<g>
</g>
<g>
</g>
<g>
</g>
<g>
</g>
<g>
</g>
<g>
</g>
</svg>
