<?xml version="1.0" encoding="iso-8859-1"?>
<!-- Generator: Adobe Illustrator 19.0.0, SVG Export Plug-In . SVG Version: 6.00 Build 0)  -->
<svg xmlns="http://www.w3.org/2000/svg" xmlns:xlink="http://www.w3.org/1999/xlink" version="1.1" id="Layer_1" x="0px" y="0px" viewBox="0 0 512 512" style="enable-background:new 0 0 512 512;" xml:space="preserve">
<path style="fill:#CEA05D;" d="M389.565,233.739h-11.13V122.435C378.435,54.816,323.618,0,256,0l0,0  c-67.618,0-122.435,54.816-122.435,122.435v111.304h-11.13c-36.883,0-66.783,29.9-66.783,66.783v77.913  C55.652,452.201,115.452,512,189.217,512h133.565c73.766,0,133.565-59.799,133.565-133.565v-77.913  C456.348,263.639,426.448,233.739,389.565,233.739z M166.957,233.739V122.435c0-49.178,39.866-89.043,89.043-89.043l0,0  c49.178,0,89.043,39.866,89.043,89.043v111.304H166.957z"/>
<path style="fill:#F4C064;" d="M267.13,400.696H244.87c-79.913,0-144.696-64.782-144.696-144.696v-22.261  c0-12.295,9.966-22.261,22.261-22.261h267.13c12.295,0,22.261,9.966,22.261,22.261V256  C411.826,335.913,347.044,400.696,267.13,400.696z"/>
<path style="fill:#FFE954;" d="M256,322.783c12.295,0,22.261,9.966,22.261,22.261c0,12.295-9.966,22.261-22.261,22.261  c-12.295,0-22.261-9.966-22.261-22.261C233.739,332.749,243.705,322.783,256,322.783z"/>
<path style="fill:#FFFF88;" d="M278.261,345.043c0,12.295-9.966,22.261-22.261,22.261v-44.522  C268.295,322.783,278.261,332.749,278.261,345.043z"/>
<g>
</g>
<g>
</g>
<g>
</g>
<g>
</g>
<g>
</g>
<g>
</g>
<g>
</g>
<g>
</g>
<g>
</g>
<g>
</g>
<g>
</g>
<g>
</g>
<g>
</g>
<g>
</g>
<g>
</g>
</svg>
