<?xml version="1.0" encoding="iso-8859-1"?>
<!-- Generator: Adobe Illustrator 19.0.0, SVG Export Plug-In . SVG Version: 6.00 Build 0)  -->
<svg xmlns="http://www.w3.org/2000/svg" xmlns:xlink="http://www.w3.org/1999/xlink" version="1.1" id="Layer_1" x="0px" y="0px" viewBox="0 0 512.001 512.001" style="enable-background:new 0 0 512.001 512.001;" xml:space="preserve">
<path style="fill:#FFE77C;" d="M456.345,189.218V512H55.656V189.218L256.005,66.783L456.345,189.218z"/>
<path style="fill:#FFFFA6;" d="M189.223,200.348L189.223,200.348c0-24.588,19.932-44.522,44.521-44.522h44.521  c24.588,0,44.521,19.933,44.521,44.522l0,0c0,24.588-19.932,44.522-44.521,44.522h-44.521  C209.157,244.87,189.223,224.936,189.223,200.348z M345.047,278.261H166.964c-18.441,0-33.39,14.949-33.39,33.391v100.174  c0,18.442,14.949,33.391,33.39,33.391h178.084c18.441,0,33.39-14.949,33.39-33.391V311.652  C378.437,293.21,363.488,278.261,345.047,278.261z"/>
<path style="fill:#F4AB53;" d="M144.698,11.131v133.565H77.917V11.131C77.917,4.983,82.9,0,89.047,0h44.521  C139.715,0,144.698,4.983,144.698,11.131z"/>
<path style="fill:#A7E5CB;" d="M356.172,311.652v100.174c0,6.147-4.983,11.13-11.13,11.13H166.958c-6.147,0-11.13-4.983-11.13-11.13  V311.652c0-6.147,4.983-11.13,11.13-11.13h178.084C351.189,300.522,356.172,305.505,356.172,311.652z M239.305,222.609h33.391  c12.295,0,22.261-9.966,22.261-22.261l0,0c0-12.295-9.966-22.261-22.261-22.261h-33.391c-12.295,0-22.261,9.966-22.261,22.261l0,0  C217.045,212.643,227.011,222.609,239.305,222.609z"/>
<path style="fill:#FF8D40;" d="M4.942,218.064c-9.651-15.471-4.735-35.716,10.979-45.217L238.527,38.253  c10.72-6.481,24.229-6.481,34.948,0l222.604,134.594c15.714,9.501,20.63,29.746,10.979,45.217  c-6.303,10.104-17.263,15.674-28.485,15.675c-5.959,0-11.992-1.569-17.443-4.866L256,104.845L50.87,228.873  C35.155,238.375,14.593,233.536,4.942,218.064z M503.652,495.305H8.357c-4.61,0-8.348,3.738-8.348,8.348S3.747,512,8.357,512  h495.295c4.61,0,8.348-3.738,8.348-8.348S508.263,495.305,503.652,495.305z"/>
<path style="fill:#FFFFA6;" d="M328.351,345.044c0,4.61-3.738,8.348-8.348,8.348h-55.651v69.565c0,4.61-3.738,8.348-8.348,8.348  s-8.348-3.738-8.348-8.348v-69.565H153.05c-4.61,0-8.348-3.738-8.348-8.348c0-4.61,3.738-8.348,8.348-8.348h94.606v-36.174  c0-4.61,3.738-8.348,8.348-8.348s8.348,3.738,8.348,8.348v36.174h55.651C324.614,336.696,328.351,340.434,328.351,345.044z"/>
<g>
</g>
<g>
</g>
<g>
</g>
<g>
</g>
<g>
</g>
<g>
</g>
<g>
</g>
<g>
</g>
<g>
</g>
<g>
</g>
<g>
</g>
<g>
</g>
<g>
</g>
<g>
</g>
<g>
</g>
</svg>
