<?xml version="1.0" encoding="iso-8859-1"?>
<!-- Generator: Adobe Illustrator 19.0.0, SVG Export Plug-In . SVG Version: 6.00 Build 0)  -->
<svg xmlns="http://www.w3.org/2000/svg" xmlns:xlink="http://www.w3.org/1999/xlink" version="1.1" id="Layer_1" x="0px" y="0px" viewBox="0 0 512 512" style="enable-background:new 0 0 512 512;" xml:space="preserve">
<g>
	<path style="fill:#9B9B9B;" d="M442.435,122.435v33.391c0,4.61-3.738,8.348-8.348,8.348s-8.348-3.738-8.348-8.348v-33.391   c0-13.81-11.234-25.043-25.043-25.043h-44.522c-13.81,0-25.043,11.234-25.043,25.043v33.391c0,4.61-3.738,8.348-8.348,8.348   s-8.348-3.738-8.348-8.348v-33.391c0-23.016,18.724-41.739,41.739-41.739h44.522C423.711,80.696,442.435,99.419,442.435,122.435z"/>
	<path style="fill:#9B9B9B;" d="M400.696,512h-77.913L111.304,300.522v-22.261h77.913v22.261L400.696,512z"/>
</g>
<path style="fill:#C1C1C1;" d="M400.696,278.261v22.261L189.217,512h-77.913l211.478-211.478v-22.261H400.696z"/>
<path style="fill:#BBFFAB;" d="M456.348,300.522H55.652C24.917,300.522,0,275.605,0,244.87l0,0  c0-30.736,24.917-55.652,55.652-55.652h400.696c30.736,0,55.652,24.917,55.652,55.652l0,0  C512,275.605,487.083,300.522,456.348,300.522z"/>
<path style="fill:#84D88B;" d="M510.885,256c-5.157,25.402-27.612,44.522-54.537,44.522H55.652c-26.923,0-49.38-19.12-54.537-44.522  H510.885z"/>
<path style="fill:#D199D1;" d="M100.174,178.087h178.087c6.147,0,11.13,4.983,11.13,11.13v55.652c0,6.147-4.983,11.13-11.13,11.13  H178.087c-6.147,0-11.13,4.983-11.13,11.13v55.652c0,12.295-9.966,22.261-22.261,22.261h-33.391  c-12.295,0-22.261-9.966-22.261-22.261V189.217C89.043,183.07,94.027,178.087,100.174,178.087z"/>
<path style="fill:#AF7AAE;" d="M89.043,256h89.043c-6.147,0-11.13,4.983-11.13,11.13v55.652c0,12.295-9.966,22.261-22.261,22.261  h-33.391c-12.295,0-22.261-9.966-22.261-22.261V256z"/>
<path style="fill:#C1C1C1;" d="M422.957,155.826v55.652c0,12.295-9.966,22.261-22.261,22.261H278.261  c-12.295,0-22.261-9.966-22.261-22.261v-11.13c0-36.883,29.9-66.783,66.783-66.783h77.913  C412.99,133.565,422.957,143.531,422.957,155.826z"/>
<path style="fill:#9B9B9B;" d="M422.957,233.739h-77.913c-12.295,0-22.261-9.966-22.261-22.261v-11.13  c0-36.883,29.9-66.783,66.783-66.783h33.391c12.295,0,22.261,9.966,22.261,22.261v55.652  C445.217,223.773,435.251,233.739,422.957,233.739z"/>
<path style="fill:#F7F7F7;" d="M445.217,211.478v22.261c0,12.295-9.966,22.261-22.261,22.261H278.261  C265.966,256,256,246.034,256,233.739v-22.261H445.217z"/>
<path style="fill:#E5E5E5;" d="M422.957,256h-77.913c-12.295,0-22.261-9.966-22.261-22.261v-22.261h122.435v22.261  C445.217,246.034,435.251,256,422.957,256z"/>
<path style="fill:#9B9B9B;" d="M464.696,503.652c0,4.61-3.738,8.348-8.348,8.348H55.652c-4.61,0-8.348-3.738-8.348-8.348  s3.738-8.348,8.348-8.348h400.696C460.958,495.304,464.696,499.042,464.696,503.652z"/>
<path style="fill:#A2CCDB;" d="M141.913,41.739v100.174c0,4.61-3.738,8.348-8.348,8.348c-4.61,0-8.348-3.738-8.348-8.348V41.739  c0-4.61,3.738-8.348,8.348-8.348C138.175,33.391,141.913,37.129,141.913,41.739z M178.087,0c-4.61,0-8.348,3.738-8.348,8.348  v133.565c0,4.61,3.738,8.348,8.348,8.348c4.61,0,8.348-3.738,8.348-8.348V8.348C186.435,3.738,182.697,0,178.087,0z M222.609,33.391  c-4.61,0-8.348,3.738-8.348,8.348v100.174c0,4.61,3.738,8.348,8.348,8.348c4.61,0,8.348-3.738,8.348-8.348V41.739  C230.957,37.129,227.219,33.391,222.609,33.391z"/>
<g>
</g>
<g>
</g>
<g>
</g>
<g>
</g>
<g>
</g>
<g>
</g>
<g>
</g>
<g>
</g>
<g>
</g>
<g>
</g>
<g>
</g>
<g>
</g>
<g>
</g>
<g>
</g>
<g>
</g>
</svg>
