<?xml version="1.0" encoding="iso-8859-1"?>
<!-- Generator: Adobe Illustrator 19.0.0, SVG Export Plug-In . SVG Version: 6.00 Build 0)  -->
<svg xmlns="http://www.w3.org/2000/svg" xmlns:xlink="http://www.w3.org/1999/xlink" version="1.1" id="Layer_1" x="0px" y="0px" viewBox="0 0 512 512" style="enable-background:new 0 0 512 512;" xml:space="preserve">
<path style="fill:#FFC248;" d="M389.565,77.913h-22.261c-67.618,0-122.435,54.816-122.435,122.435l0,0  c0,61.954,46.02,113.153,105.739,121.297v162.529c0,15.368,12.458,27.826,27.826,27.826s27.826-12.458,27.826-27.826v-5.565h16.696  c12.295,0,22.261-9.966,22.261-22.261l0,0c0-12.295-9.966-22.261-22.261-22.261h-16.696v-22.261h16.696  c12.295,0,22.261-9.966,22.261-22.261l0,0c0-12.295-9.966-22.261-22.261-22.261h-16.696v-22.261v-23.398  C465.98,313.501,512,262.303,512,200.348l0,0C512,132.729,457.184,77.913,389.565,77.913z M434.087,178.087  c0,18.442-14.949,33.391-33.391,33.391h-44.522c-18.442,0-33.391-14.949-33.391-33.391l0,0c0-18.441,14.949-33.391,33.391-33.391  h44.522C419.138,144.696,434.087,159.645,434.087,178.087L434.087,178.087z"/>
<path style="fill:#84D88B;" d="M311.652,155.826H44.522C19.933,155.826,0,135.893,0,111.304V44.522C0,19.933,19.933,0,44.522,0  h267.13c24.588,0,44.522,19.933,44.522,44.522v66.783C356.174,135.893,336.24,155.826,311.652,155.826z"/>
<path style="fill:#5F8E5F;" d="M36.174,44.522c0-4.61,3.738-8.348,8.348-8.348h89.043c4.61,0,8.348,3.738,8.348,8.348  s-3.738,8.348-8.348,8.348H44.522C39.912,52.87,36.174,49.132,36.174,44.522z M133.565,69.565H44.522  c-4.61,0-8.348,3.738-8.348,8.348s3.738,8.348,8.348,8.348h89.043c4.61,0,8.348-3.738,8.348-8.348S138.175,69.565,133.565,69.565z   M133.565,102.957H44.522c-4.61,0-8.348,3.738-8.348,8.348s3.738,8.348,8.348,8.348h89.043c4.61,0,8.348-3.738,8.348-8.348  S138.175,102.957,133.565,102.957z"/>
<path style="fill:#FF7E1D;" d="M378.435,0c-16.878,0-30.609,13.731-30.609,30.609v131.269c0,16.878,13.73,30.609,30.609,30.609  c16.878,0,30.609-13.73,30.609-30.609v-17.182v-11.13V64V48.139v-17.53C409.043,13.731,395.313,0,378.435,0z M392.348,48.139V64  v69.565v11.13v17.182c0,7.672-6.241,13.913-13.913,13.913c-7.672,0-13.913-6.241-13.913-13.913V30.609  c0-7.672,6.241-13.913,13.913-13.913c7.672,0,13.913,6.241,13.913,13.913V48.139z"/>
<path style="fill:#FFA233;" d="M378.435,495.397V211.478h-22.261c-18.442,0-33.391-14.949-33.391-33.391l0,0  c0-18.441,14.949-33.391,33.391-33.391h22.261V77.913h-11.13c-67.618,0-122.435,54.816-122.435,122.435l0,0  c0,61.955,46.021,113.153,105.74,121.297h-0.001v162.529c0,15.368,12.458,27.826,27.826,27.826c5.07,0,9.819-1.362,13.913-3.732  C384.033,503.456,378.435,494.472,378.435,495.397z"/>
<g>
</g>
<g>
</g>
<g>
</g>
<g>
</g>
<g>
</g>
<g>
</g>
<g>
</g>
<g>
</g>
<g>
</g>
<g>
</g>
<g>
</g>
<g>
</g>
<g>
</g>
<g>
</g>
<g>
</g>
</svg>
