<?xml version="1.0" encoding="iso-8859-1"?>
<!-- Generator: Adobe Illustrator 19.0.0, SVG Export Plug-In . SVG Version: 6.00 Build 0)  -->
<svg xmlns="http://www.w3.org/2000/svg" xmlns:xlink="http://www.w3.org/1999/xlink" version="1.1" id="Layer_1" x="0px" y="0px" viewBox="0 0 512 512" style="enable-background:new 0 0 512 512;" xml:space="preserve">
<path style="fill:#CEA05D;" d="M512,256L512,256c0,21.515-17.441,38.957-38.957,38.957h-72.348v105.739  c0,24.588-19.934,44.522-44.522,44.522H44.522C19.933,445.217,0,425.284,0,400.696V111.304c0-24.588,19.933-44.522,44.522-44.522  h311.652c24.588,0,44.522,19.933,44.522,44.522v105.739h72.348C494.559,217.043,512,234.485,512,256z"/>
<path style="fill:#B28D5B;" d="M400.696,256v144.696c0,24.588-19.934,44.522-44.522,44.522H44.522  C19.933,445.217,0,425.284,0,400.696V256H400.696z"/>
<path style="fill:#FFF6B6;" d="M239.304,356.174h-77.913c-55.325,0-100.174-44.849-100.174-100.174l0,0  c0-55.325,44.849-100.174,100.174-100.174h77.913c55.325,0,100.174,44.849,100.174,100.174l0,0  C339.478,311.325,294.629,356.174,239.304,356.174z"/>
<path style="fill:#FF8355;" d="M239.304,189.217h-77.913c-36.883,0-66.783,29.9-66.783,66.783l0,0  c0,36.883,29.9,66.783,66.783,66.783h77.913c36.883,0,66.783-29.9,66.783-66.783l0,0  C306.087,219.117,276.187,189.217,239.304,189.217z M150.261,278.261C137.966,278.261,128,268.295,128,256  c0-12.295,9.966-22.261,22.261-22.261c12.295,0,22.261,9.966,22.261,22.261C172.522,268.295,162.556,278.261,150.261,278.261z"/>
<g>
</g>
<g>
</g>
<g>
</g>
<g>
</g>
<g>
</g>
<g>
</g>
<g>
</g>
<g>
</g>
<g>
</g>
<g>
</g>
<g>
</g>
<g>
</g>
<g>
</g>
<g>
</g>
<g>
</g>
</svg>
