<?xml version="1.0" encoding="iso-8859-1"?>
<!-- Generator: Adobe Illustrator 19.0.0, SVG Export Plug-In . SVG Version: 6.00 Build 0)  -->
<svg xmlns="http://www.w3.org/2000/svg" xmlns:xlink="http://www.w3.org/1999/xlink" version="1.1" id="Layer_1" x="0px" y="0px" viewBox="0 0 511.999 511.999" style="enable-background:new 0 0 511.999 511.999;" xml:space="preserve">
<path style="fill:#5B7A7F;" d="M244.879,278.239v89.198v122.322c0,12.552-10.398,22.676-23.051,22.226  c-12.052-0.428-21.43-10.7-21.43-22.758v-99.549c0-12.283-9.957-22.24-22.24-22.24l0,0c-12.283,0-22.24,9.957-22.24,22.24v100.081  c0,12.552-10.398,22.676-23.051,22.226c-12.052-0.428-21.43-10.7-21.43-22.758V367.437v-89.198H244.879z"/>
<path style="fill:#90B5BF;" d="M278.24,189.515v111.201H78.077V189.515c0-36.849,29.872-66.721,66.721-66.721h66.721  C248.368,122.794,278.24,152.666,278.24,189.515z"/>
<path style="fill:#769CA5;" d="M178.159,300.716H78.077V189.515c0-36.849,29.872-66.721,66.721-66.721h33.36V300.716z"/>
<path style="fill:#F4C064;" d="M222.639,44.953c0,24.565-19.915,44.481-44.481,44.481s-44.481-19.915-44.481-44.481  s19.915-44.481,44.481-44.481S222.639,20.388,222.639,44.953z M111.438,211.755h-33.36v122.322c0,12.282,9.957,22.24,22.24,22.24  s22.24-9.958,22.24-22.24V222.876C122.558,216.734,117.579,211.755,111.438,211.755z M333.841,278.476H278.24v-66.721h-33.36  c-6.142,0-11.12,4.979-11.12,11.12v77.841c0,12.282,9.957,22.24,22.24,22.24h77.841c12.283,0,22.24-9.958,22.24-22.24l0,0  C356.081,288.433,346.124,278.476,333.841,278.476z"/>
<path style="fill:#F4AB53;" d="M178.159,0.473v88.961c-24.565,0-44.481-19.915-44.481-44.481  C133.678,20.387,153.593,0.473,178.159,0.473z"/>
<path style="fill:#FFA233;" d="M411.681,189.515c12.283,0,22.24,9.957,22.24,22.24c0,12.282-9.957,22.24-22.24,22.24h-66.721  c-12.283,0-22.24-9.958-22.24-22.24c0-12.283,9.957-22.24,22.24-22.24c-12.283,0-22.24-9.958-22.24-22.24  c0-12.283,9.957-22.24,22.24-22.24c-12.283,0-22.24-9.958-22.24-22.24c0-12.283,9.957-22.24,22.24-22.24h66.721  c12.283,0,22.24,9.957,22.24,22.24c0,12.282-9.957,22.24-22.24,22.24c12.283,0,22.24,9.957,22.24,22.24  C433.922,179.557,423.965,189.515,411.681,189.515z M323.564,37.692c2.133,12.096,13.668,20.173,25.764,18.04l65.708-11.586  c12.096-2.133,20.173-13.669,18.04-25.764c-2.133-12.096-13.668-20.173-25.764-18.04l-65.707,11.586  C329.509,14.059,321.432,25.595,323.564,37.692L323.564,37.692z"/>
<path style="fill:#FFC248;" d="M433.922,211.755L433.922,211.755H322.72l0,0c0-12.283,9.957-22.24,22.24-22.24h66.721  C423.965,189.515,433.922,199.472,433.922,211.755z M411.681,145.035h-66.721c-12.283,0-22.24,9.957-22.24,22.24l0,0h111.201l0,0  C433.922,154.992,423.965,145.035,411.681,145.035z M411.681,100.554h-66.721c-12.283,0-22.24,9.957-22.24,22.24l0,0h111.201l0,0  C433.922,110.511,423.965,100.554,411.681,100.554z M323.564,37.692l109.512-19.31l0,0c-2.133-12.096-13.668-20.173-25.764-18.04  l-65.707,11.586C329.509,14.059,321.432,25.595,323.564,37.692L323.564,37.692z"/>
<g>
</g>
<g>
</g>
<g>
</g>
<g>
</g>
<g>
</g>
<g>
</g>
<g>
</g>
<g>
</g>
<g>
</g>
<g>
</g>
<g>
</g>
<g>
</g>
<g>
</g>
<g>
</g>
<g>
</g>
</svg>
