<?xml version="1.0" encoding="iso-8859-1"?>
<!-- Generator: Adobe Illustrator 19.0.0, SVG Export Plug-In . SVG Version: 6.00 Build 0)  -->
<svg xmlns="http://www.w3.org/2000/svg" xmlns:xlink="http://www.w3.org/1999/xlink" version="1.1" id="Layer_1" x="0px" y="0px" viewBox="0 0 512 512" style="enable-background:new 0 0 512 512;" xml:space="preserve">
<path style="fill:#84D88B;" d="M272.696,22.261v345.043v66.783v55.652c0,12.295-9.966,22.261-22.261,22.261H83.478  c-12.295,0-22.261-9.966-22.261-22.261v-55.652v-66.783V22.261C61.217,9.966,71.184,0,83.478,0h166.957  C262.729,0,272.696,9.966,272.696,22.261z"/>
<path style="fill:#6BAF6E;" d="M272.696,478.609H61.217V33.391h211.478V478.609z"/>
<path style="fill:#AF7AAE;" d="M55.652,55.652h222.609c24.588,0,44.522,19.933,44.522,44.522v311.652  c0,24.588-19.934,44.522-44.522,44.522H55.652c-24.588,0-44.522-19.934-44.522-44.522V100.174  C11.13,75.586,31.064,55.652,55.652,55.652z"/>
<path style="fill:#D199D1;" d="M278.261,456.348H178.087c-24.588,0-44.522-19.934-44.522-44.522V100.174  c0-24.588,19.933-44.522,44.522-44.522h100.174c24.588,0,44.522,19.933,44.522,44.522v311.652  C322.783,436.414,302.849,456.348,278.261,456.348z"/>
<path style="fill:#8E5B8E;" d="M108.522,389.565c0,4.61-3.738,8.348-8.348,8.348H8.348c-4.61,0-8.348-3.738-8.348-8.348  c0-4.61,3.738-8.348,8.348-8.348h91.826C104.785,381.217,108.522,384.955,108.522,389.565z M278.261,381.217H133.565  c-4.61,0-8.348,3.738-8.348,8.348c0,4.61,3.738,8.348,8.348,8.348h144.696c4.61,0,8.348-3.738,8.348-8.348  C286.609,384.955,282.871,381.217,278.261,381.217z M8.348,264.348h91.826c4.61,0,8.348-3.738,8.348-8.348s-3.738-8.348-8.348-8.348  H8.348C3.738,247.652,0,251.39,0,256S3.738,264.348,8.348,264.348z M278.261,264.348c4.61,0,8.348-3.738,8.348-8.348  s-3.738-8.348-8.348-8.348H133.565c-4.61,0-8.348,3.738-8.348,8.348s3.738,8.348,8.348,8.348H278.261z M47.304,322.783  c0,4.61,3.738,8.348,8.348,8.348H244.87c4.61,0,8.348-3.738,8.348-8.348s-3.738-8.348-8.348-8.348H55.652  C51.042,314.435,47.304,318.172,47.304,322.783z M333.913,314.435h-55.652c-4.61,0-8.348,3.738-8.348,8.348s3.738,8.348,8.348,8.348  h55.652c4.61,0,8.348-3.738,8.348-8.348S338.523,314.435,333.913,314.435z M372.87,448c0,4.61,3.738,8.348,8.348,8.348  s8.348-3.738,8.348-8.348V211.478c0-16.878-13.73-30.609-30.609-30.609h-25.043h-11.13H55.652c-4.61,0-8.348,3.738-8.348,8.348  c0,4.61,3.738,8.348,8.348,8.348h267.13h11.13h25.043c7.672,0,13.913,6.241,13.913,13.913V448z M503.652,0h-11.13  c-29.152,0-52.87,23.718-52.87,52.87v417.391c0,13.81-11.234,25.043-25.043,25.043s-25.043-11.234-25.043-25.043  c0-4.61-3.738-8.348-8.348-8.348s-8.348,3.738-8.348,8.348c0,23.016,18.724,41.739,41.739,41.739s41.739-18.724,41.739-41.739V52.87  c0-19.946,16.228-36.174,36.174-36.174h11.13c4.61,0,8.348-3.738,8.348-8.348S508.262,0,503.652,0z"/>
<g>
</g>
<g>
</g>
<g>
</g>
<g>
</g>
<g>
</g>
<g>
</g>
<g>
</g>
<g>
</g>
<g>
</g>
<g>
</g>
<g>
</g>
<g>
</g>
<g>
</g>
<g>
</g>
<g>
</g>
</svg>
