<?xml version="1.0" encoding="iso-8859-1"?>
<!-- Generator: Adobe Illustrator 19.0.0, SVG Export Plug-In . SVG Version: 6.00 Build 0)  -->
<svg xmlns="http://www.w3.org/2000/svg" xmlns:xlink="http://www.w3.org/1999/xlink" version="1.1" id="Layer_1" x="0px" y="0px" viewBox="0 0 512 512" style="enable-background:new 0 0 512 512;" xml:space="preserve">
<path style="fill:#D199D1;" d="M503.234,53.747C508.35,54.859,512,59.388,512,64.623v113.464c0,6.147-4.983,11.13-11.13,11.13  h-89.043V500.87c0,6.147-4.983,11.13-11.13,11.13H256H111.304c-6.147,0-11.13-4.983-11.13-11.13V189.217H11.13  c-6.147,0-11.13-4.983-11.13-11.13V64.623c0-5.236,3.65-9.764,8.766-10.877L256,0L503.234,53.747z"/>
<path style="fill:#E5BDE5;" d="M411.826,33.875v155.342V500.87c0,6.147-4.983,11.13-11.13,11.13H256V0L411.826,33.875z"/>
<path style="fill:#D199D1;" d="M289.391,100.174h-66.783c-36.883,0-66.783-29.9-66.783-66.783l0,0  C155.826,14.95,170.775,0,189.217,0h133.565c18.441,0,33.391,14.949,33.391,33.391l0,0  C356.174,70.274,326.274,100.174,289.391,100.174z"/>
<path style="fill:#AF7AAE;" d="M256,100.174h-33.391c-36.883,0-66.783-29.9-66.783-66.783l0,0C155.826,14.95,170.775,0,189.217,0  H256V100.174z"/>
<path style="fill:#8E5B8E;" d="M289.391,55.652h-66.783c-12.295,0-22.261-9.966-22.261-22.261V0h111.304v33.391  C311.652,45.686,301.686,55.652,289.391,55.652z"/>
<path style="fill:#FFE954;" d="M367.304,473.043V512h-33.391v-38.957c0-3.073,2.492-5.565,5.565-5.565h22.261  C364.812,467.478,367.304,469.97,367.304,473.043z"/>
<path style="fill:#FFC248;" d="M361.739,489.739c0,6.147-4.983,11.13-11.13,11.13c-6.147,0-11.13-4.983-11.13-11.13  s4.983-11.13,11.13-11.13C356.756,478.609,361.739,483.592,361.739,489.739z"/>
<g>
</g>
<g>
</g>
<g>
</g>
<g>
</g>
<g>
</g>
<g>
</g>
<g>
</g>
<g>
</g>
<g>
</g>
<g>
</g>
<g>
</g>
<g>
</g>
<g>
</g>
<g>
</g>
<g>
</g>
</svg>
