<?xml version="1.0" encoding="iso-8859-1"?>
<!-- Generator: Adobe Illustrator 19.0.0, SVG Export Plug-In . SVG Version: 6.00 Build 0)  -->
<svg xmlns="http://www.w3.org/2000/svg" xmlns:xlink="http://www.w3.org/1999/xlink" version="1.1" id="Layer_1" x="0px" y="0px" viewBox="0 0 512.001 512.001" style="enable-background:new 0 0 512.001 512.001;" xml:space="preserve">
<path style="fill:#84D88B;" d="M219.77,440.126c5.871,33.298-16.362,65.052-49.657,70.923l-0.062,0.011  c-33.296,5.871-65.047-16.363-70.918-49.661L74.975,324.385l120.637-21.272L219.77,440.126z M322.696,339.476  c0,33.812,27.408,61.222,61.217,61.222h0.063c33.81,0,61.217-27.41,61.217-61.222V200.349H322.696V339.476z M100.554,116.435  l-0.097,0.017C49,125.526,14.642,174.599,23.714,226.06l16.426,93.165l186.439-32.877l-16.426-93.166  C201.081,141.723,152.011,107.362,100.554,116.435z M383.995,0h-0.098c-52.251,0-94.609,42.361-94.609,94.615v94.603h189.315V94.615  C478.604,42.361,436.246,0,383.995,0z"/>
<path style="fill:#BBFFAB;" d="M232.716,257.012c0.331,1.877,10.63,60.288,10.63,60.288L34.972,354.044  c0,0-10.298-58.41-10.63-60.288l0,0c-2.668-15.134,5.309-29.192,17.818-31.398l163.075-28.757  C217.744,231.397,230.048,241.878,232.716,257.012L232.716,257.012z M466.741,133.566H301.15c-12.702,0-22.999,12.458-22.999,27.826  l0,0c0,1.907,0,61.217,0,61.217H489.74c0,0,0-59.312,0-61.217l0,0C489.74,146.025,479.443,133.566,466.741,133.566z"/>
<path style="fill:#5F8E5F;" d="M244.311,322.78c2.668,15.134-7.436,29.567-22.57,32.236l-153.57,27.08  c-15.133,2.669-29.565-7.437-32.234-22.571c-2.669-15.134,7.436-29.567,22.57-32.236l153.571-27.08  C227.212,297.54,241.643,307.646,244.311,322.78L244.311,322.78z M461.916,200.349h-155.94c-15.367,0-27.824,12.458-27.824,27.826  l0,0c0,15.368,12.457,27.826,27.824,27.826h155.94c15.367,0,27.824-12.458,27.824-27.826l0,0  C489.74,212.807,477.283,200.349,461.916,200.349z"/>
<path style="fill:#6BAF6E;" d="M195.635,303.105l9.663,54.811L84.723,379.177l-9.665-54.811L195.635,303.105z M322.783,200.344  v55.657h122.435v-55.657H322.783z"/>
<path style="fill:#F4AB53;" d="M152.734,220.257c3.202,18.162-8.932,35.482-27.103,38.686c-18.17,3.204-35.497-8.921-38.699-27.083  c-3.202-18.162,8.932-35.482,27.103-38.686S149.531,202.095,152.734,220.257z M383.946,77.913  c-18.451,0-33.408,14.949-33.408,33.391s14.958,33.391,33.408,33.391c18.451,0,33.409-14.949,33.409-33.391  S402.397,77.913,383.946,77.913z"/>
<path style="fill:#F4DA84;" d="M129.838,218.642c1.602,9.084-4.468,17.746-13.556,19.349s-17.754-4.462-19.356-13.546  s4.468-17.746,13.556-19.349C119.57,203.494,128.237,209.558,129.838,218.642z M378.378,89.038c-9.228,0-16.709,7.477-16.709,16.701  s7.481,16.701,16.709,16.701s16.71-7.477,16.71-16.701S387.606,89.038,378.378,89.038z"/>
<g>
</g>
<g>
</g>
<g>
</g>
<g>
</g>
<g>
</g>
<g>
</g>
<g>
</g>
<g>
</g>
<g>
</g>
<g>
</g>
<g>
</g>
<g>
</g>
<g>
</g>
<g>
</g>
<g>
</g>
</svg>
