<?xml version="1.0" encoding="iso-8859-1"?>
<!-- Generator: Adobe Illustrator 19.0.0, SVG Export Plug-In . SVG Version: 6.00 Build 0)  -->
<svg xmlns="http://www.w3.org/2000/svg" xmlns:xlink="http://www.w3.org/1999/xlink" version="1.1" id="Layer_1" x="0px" y="0px" viewBox="0 0 512 512" style="enable-background:new 0 0 512 512;" xml:space="preserve">
<path style="fill:#A7E5CB;" d="M333.913,33.391v456.348c0,12.295-9.966,22.261-22.261,22.261H22.261C9.966,512,0,502.034,0,489.739  V33.391C0,21.097,9.966,11.13,22.261,11.13h289.391C323.947,11.13,333.913,21.097,333.913,33.391z"/>
<path style="fill:#64AF8F;" d="M244.87,22.261v44.522H0V22.261C0,9.966,9.966,0,22.261,0h200.348  C234.903,0,244.87,9.966,244.87,22.261z M0,489.739C0,502.034,9.966,512,22.261,512h289.391c12.295,0,22.261-9.966,22.261-22.261  v-77.913H0V489.739z"/>
<path style="fill:#93D6BB;" d="M183.652,461.913c0,9.22-7.475,16.696-16.696,16.696s-16.696-7.475-16.696-16.696  s7.475-16.696,16.696-16.696S183.652,452.693,183.652,461.913z"/>
<path style="fill:#64AF8F;" d="M141.913,356.174c0,4.61-3.738,8.348-8.348,8.348H44.522c-4.61,0-8.348-3.738-8.348-8.348  s3.738-8.348,8.348-8.348h89.043C138.175,347.826,141.913,351.564,141.913,356.174z M189.217,314.435H44.522  c-4.61,0-8.348,3.738-8.348,8.348s3.738,8.348,8.348,8.348h144.696c4.61,0,8.348-3.738,8.348-8.348S193.828,314.435,189.217,314.435  z"/>
<path style="fill:#FFE954;" d="M512,22.261v189.217c0,12.295-9.966,22.261-22.261,22.261H355.345c-5.379,0-9.988,3.847-10.951,9.139  l-5.951,32.735c-2.622,14.424-15.185,24.909-29.846,24.909l0,0c-16.754,0-30.335-13.581-30.335-30.335V244.87  c0-6.147-4.983-11.13-11.13-11.13h-44.522c-12.295,0-22.261-9.966-22.261-22.261V22.261C200.348,9.966,210.314,0,222.609,0h267.13  C502.034,0,512,9.966,512,22.261z"/>
<path style="fill:#FF8500;" d="M320,77.913v-11.13c0-4.61,3.738-8.348,8.348-8.348s8.348,3.738,8.348,8.348v11.13  c0,4.61-3.738,8.348-8.348,8.348S320,82.523,320,77.913z M384,86.261c4.61,0,8.348-3.738,8.348-8.348v-11.13  c0-4.61-3.738-8.348-8.348-8.348c-4.61,0-8.348,3.738-8.348,8.348v11.13C375.652,82.523,379.39,86.261,384,86.261z M428.522,97.391  c-4.61,0-8.348,3.738-8.348,8.348c0,35.29-28.71,64-64,64s-64-28.71-64-64c0-4.61-3.738-8.348-8.348-8.348s-8.348,3.738-8.348,8.348  c0,44.496,36.2,80.696,80.696,80.696s80.696-36.199,80.696-80.696C436.87,101.129,433.132,97.391,428.522,97.391z"/>
<g>
</g>
<g>
</g>
<g>
</g>
<g>
</g>
<g>
</g>
<g>
</g>
<g>
</g>
<g>
</g>
<g>
</g>
<g>
</g>
<g>
</g>
<g>
</g>
<g>
</g>
<g>
</g>
<g>
</g>
</svg>
