<?xml version="1.0" encoding="iso-8859-1"?>
<!-- Generator: Adobe Illustrator 19.0.0, SVG Export Plug-In . SVG Version: 6.00 Build 0)  -->
<svg xmlns="http://www.w3.org/2000/svg" xmlns:xlink="http://www.w3.org/1999/xlink" version="1.1" id="Layer_1" x="0px" y="0px" viewBox="0 0 512 512" style="enable-background:new 0 0 512 512;" xml:space="preserve">
<path style="fill:#D7F3FF;" d="M228.174,356.174H384c43.03,0,77.913,34.883,77.913,77.913l0,0C461.913,477.117,427.03,512,384,512  H205.913h-22.261c-73.766,0-133.565-59.799-133.565-133.565v-22.261V22.261C50.087,9.966,60.053,0,72.348,0h111.304  c12.295,0,22.261,9.966,22.261,22.261v311.652C205.913,346.208,215.879,356.174,228.174,356.174z"/>
<path style="fill:#84D88B;" d="M205.913,22.261v44.522H50.087V22.261C50.087,9.966,60.053,0,72.348,0h111.304  C195.947,0,205.913,9.966,205.913,22.261z M384,356.174h-11.13V512H384c43.03,0,77.913-34.883,77.913-77.913l0,0  C461.913,391.057,427.03,356.174,384,356.174z M116.87,378.435H72.348c-7.787,0-15.255,1.346-22.204,3.796  c1.975,70.748,58.963,127.737,129.712,129.713c2.45-6.949,3.795-14.417,3.795-22.204v-44.522  C183.652,408.334,153.752,378.435,116.87,378.435z"/>
<path style="fill:#6BAF6E;" d="M180.87,0v22.261c0,4.61-3.736,8.348-8.348,8.348s-8.348-3.738-8.348-8.348V0H180.87z   M134.492,22.261c0,4.61,3.736,8.348,8.348,8.348s8.348-3.738,8.348-8.348V0h-16.696C134.492,0,134.492,22.261,134.492,22.261z   M104.812,22.261c0,4.61,3.736,8.348,8.348,8.348c4.611,0,8.348-3.738,8.348-8.348V0h-16.696V22.261z M75.13,22.261  c0,4.61,3.736,8.348,8.348,8.348s8.348-3.738,8.348-8.348V0H75.13V22.261z"/>
<g>
</g>
<g>
</g>
<g>
</g>
<g>
</g>
<g>
</g>
<g>
</g>
<g>
</g>
<g>
</g>
<g>
</g>
<g>
</g>
<g>
</g>
<g>
</g>
<g>
</g>
<g>
</g>
<g>
</g>
</svg>
