<?xml version="1.0" encoding="iso-8859-1"?>
<!-- Generator: Adobe Illustrator 19.0.0, SVG Export Plug-In . SVG Version: 6.00 Build 0)  -->
<svg xmlns="http://www.w3.org/2000/svg" xmlns:xlink="http://www.w3.org/1999/xlink" version="1.1" id="Layer_1" x="0px" y="0px" viewBox="0 0 512 512" style="enable-background:new 0 0 512 512;" xml:space="preserve">
<path style="fill:#769CA5;" d="M489.739,111.304v289.391c0,12.295-9.966,22.261-22.261,22.261H44.522  c-12.295,0-22.261-9.966-22.261-22.261V111.304c0-12.295,9.966-22.261,22.261-22.261h422.957  C479.773,89.043,489.739,99.01,489.739,111.304z"/>
<path style="fill:#5B7A7F;" d="M489.739,256v144.696c0,12.295-9.966,22.261-22.261,22.261H44.522  c-12.295,0-22.261-9.966-22.261-22.261V256H489.739z"/>
<path style="fill:#C1C1C1;" d="M489.739,89.043v33.391H22.261V89.043c0-12.295,9.966-22.261,22.261-22.261h422.957  C479.773,66.783,489.739,76.749,489.739,89.043z M22.261,422.957c0,12.295,9.966,22.261,22.261,22.261h422.957  c12.295,0,22.261-9.966,22.261-22.261v-33.391H22.261V422.957z"/>
<path style="fill:#DBDBDB;" d="M256,389.565h233.739v33.391c0,12.295-9.966,22.261-22.261,22.261H256V389.565z M467.478,66.783H256  v55.652h233.739V89.043C489.739,76.749,479.773,66.783,467.478,66.783z"/>
<path style="fill:#F4C064;" d="M55.652,300.522v33.391c0,6.147-4.983,11.13-11.13,11.13H11.13c-6.147,0-11.13-4.983-11.13-11.13  v-33.391c0-6.147,4.983-11.13,11.13-11.13h33.391C50.669,289.391,55.652,294.374,55.652,300.522z"/>
<path style="fill:#FFE77C;" d="M356.174,189.217v33.391c0,6.147-4.983,11.13-11.13,11.13h-33.391c-6.147,0-11.13-4.983-11.13-11.13  v-33.391c0-6.147,4.983-11.13,11.13-11.13h33.391C351.191,178.087,356.174,183.07,356.174,189.217z"/>
<path style="fill:#BBFFAB;" d="M378.435,289.391v55.652c0,6.147-4.983,11.13-11.13,11.13h-55.652c-6.147,0-11.13-4.983-11.13-11.13  v-55.652c0-6.147,4.983-11.13,11.13-11.13h55.652C373.452,278.261,378.435,283.244,378.435,289.391z"/>
<path style="fill:#A7E5CB;" d="M456.348,278.261v22.261c0,6.147-4.983,11.13-11.13,11.13h-22.261c-6.147,0-11.13-4.983-11.13-11.13  v-22.261c0-6.147,4.983-11.13,11.13-11.13h22.261C451.365,267.13,456.348,272.114,456.348,278.261z"/>
<path style="fill:#91F18B;" d="M100.174,166.957v77.913c0,6.147-4.983,11.13-11.13,11.13H11.13C4.983,256,0,251.017,0,244.87  v-77.913c0-6.147,4.983-11.13,11.13-11.13h77.913C95.191,155.826,100.174,160.809,100.174,166.957z"/>
<path style="fill:#D199D1;" d="M267.13,211.478v111.304c0,6.147-4.983,11.13-11.13,11.13H144.696c-6.147,0-11.13-4.983-11.13-11.13  V211.478c0-6.147,4.983-11.13,11.13-11.13H256C262.147,200.348,267.13,205.331,267.13,211.478z"/>
<path style="fill:#FF9CAB;" d="M512,122.435v100.174c0,6.147-4.983,11.13-11.13,11.13H400.696c-6.147,0-11.13-4.983-11.13-11.13  V122.435c0-6.147,4.983-11.13,11.13-11.13H500.87C507.017,111.304,512,116.287,512,122.435z"/>
<path style="fill:#F7F7F7;" d="M278.261,122.435c0,12.295-9.966,22.261-22.261,22.261c-12.295,0-22.261-9.966-22.261-22.261  s9.966-22.261,22.261-22.261C268.295,100.174,278.261,110.14,278.261,122.435z"/>
<path style="fill:#9B9B9B;" d="M261.565,122.435c0,3.073-2.492,5.565-5.565,5.565s-5.565-2.492-5.565-5.565s2.492-5.565,5.565-5.565  S261.565,119.362,261.565,122.435z"/>
<g>
</g>
<g>
</g>
<g>
</g>
<g>
</g>
<g>
</g>
<g>
</g>
<g>
</g>
<g>
</g>
<g>
</g>
<g>
</g>
<g>
</g>
<g>
</g>
<g>
</g>
<g>
</g>
<g>
</g>
</svg>
