<?xml version="1.0" encoding="iso-8859-1"?>
<!-- Generator: Adobe Illustrator 19.0.0, SVG Export Plug-In . SVG Version: 6.00 Build 0)  -->
<svg xmlns="http://www.w3.org/2000/svg" xmlns:xlink="http://www.w3.org/1999/xlink" version="1.1" id="Layer_1" x="0px" y="0px" viewBox="0 0 512 512" style="enable-background:new 0 0 512 512;" xml:space="preserve">
<path style="fill:#769CA5;" d="M340.016,455.083l-58.425,49.673C276.092,509.43,269.09,512,261.85,512  c-7.241,0-14.244-2.57-19.741-7.244l-58.425-49.673c-7.299-6.206-11.201-15.477-10.516-24.989l19.341-268.585  c1.132-15.745,14.34-27.944,30.255-27.944h-9.233c-10.971,0-20.334-7.867-22.137-18.601l-14.962-89.043  C174.152,12.351,184.702,0,198.57,0h126.557c13.869,0,24.418,12.351,22.137,25.921l-14.962,89.043  c-1.803,10.734-11.166,18.601-22.137,18.601h-9.233c15.914,0,29.124,12.199,30.257,27.944l19.341,268.585  C351.216,439.607,347.315,448.878,340.016,455.083z"/>
<path style="fill:#5B7A7F;" d="M342.645,53.417l-10.341,61.547c-1.803,10.734-11.166,18.601-22.137,18.601l0,0  c-26.684,0-48.317,21.571-48.317,48.18V512c-7.241,0-14.244-2.569-19.741-7.244l-58.426-49.673  c-7.299-6.206-11.201-15.477-10.516-24.989l19.341-268.585c1.134-15.745,14.343-27.944,30.257-27.944h-9.233  c-10.971,0-20.334-7.867-22.137-18.601l-10.341-61.547c-0.772-4.599,2.731-8.793,7.379-8.893c2.06-0.045,4.826,1.356,6.181,2.903  c16.363,18.678,40.409,30.486,67.236,30.486l0,0c26.827,0,50.873-11.808,67.236-30.486c1.356-1.547,4.122-2.947,6.181-2.903  C339.913,44.624,343.417,48.818,342.645,53.417z"/>
<path style="fill:#FFA233;" d="M273.787,367.304H172.522c-6.147,0-11.13-4.983-11.13-11.13v-22.261c0-6.147,4.983-11.13,11.13-11.13  h101.266c12.295,0,22.261,9.966,22.261,22.261l0,0C296.048,357.338,286.082,367.304,273.787,367.304z"/>
<path style="fill:#FFC248;" d="M296.048,345.043L296.048,345.043H161.391v-11.13c0-6.147,4.998-11.13,11.162-11.13h101.171  C286.054,322.783,296.048,332.749,296.048,345.043z"/>
<g>
</g>
<g>
</g>
<g>
</g>
<g>
</g>
<g>
</g>
<g>
</g>
<g>
</g>
<g>
</g>
<g>
</g>
<g>
</g>
<g>
</g>
<g>
</g>
<g>
</g>
<g>
</g>
<g>
</g>
</svg>
