<?xml version="1.0" encoding="iso-8859-1"?>
<!-- Generator: Adobe Illustrator 19.0.0, SVG Export Plug-In . SVG Version: 6.00 Build 0)  -->
<svg xmlns="http://www.w3.org/2000/svg" xmlns:xlink="http://www.w3.org/1999/xlink" version="1.1" id="Layer_1" x="0px" y="0px" viewBox="0 0 512 512" style="enable-background:new 0 0 512 512;" xml:space="preserve">
<path style="fill:#B5E1F4;" d="M481.948,160.278c16.598,0,30.052,13.454,30.052,30.052l0,0c0,16.598-13.454,30.052-30.052,30.052  c16.598,0,30.052,13.454,30.052,30.052l0,0c0,16.598-13.454,30.052-30.052,30.052c16.598,0,30.052,13.454,30.052,30.052l0,0  c0,16.598-13.454,30.052-30.052,30.052c16.598,0,30.052,13.454,30.052,30.052l0,0c0,16.598-13.454,30.052-30.052,30.052H345.043  v-60.104v-60.104v-60.104v-60.104v-60.104h136.904c16.598,0,30.052,13.454,30.052,30.052l0,0  C512,146.824,498.546,160.278,481.948,160.278z"/>
<path style="fill:#A2CCDB;" d="M378.435,100.174h89.043l-44.522,300.522h-44.522V100.174z"/>
<path style="fill:#C5EAFF;" d="M411.826,111.304v289.391c0,36.883-92.19,66.783-205.913,66.783S0,437.579,0,400.696V111.304H411.826  z"/>
<path style="fill:#F4FFF9;" d="M411.826,111.304c0,36.883-92.19,66.783-205.913,66.783S0,148.187,0,111.304  s92.19-66.783,205.913-66.783S411.826,74.421,411.826,111.304z"/>
<path style="fill:#D7F3FF;" d="M343.188,111.304c0,24.588-61.46,44.522-137.275,44.522S68.638,135.893,68.638,111.304  s61.46-44.522,137.275-44.522S343.188,86.716,343.188,111.304z"/>
<path style="fill:#A2CCDB;" d="M256,111.304c0,8.971-22.424,16.245-50.087,16.245s-50.087-7.274-50.087-16.245  s22.424-16.245,50.087-16.245S256,102.333,256,111.304z"/>
<g>
</g>
<g>
</g>
<g>
</g>
<g>
</g>
<g>
</g>
<g>
</g>
<g>
</g>
<g>
</g>
<g>
</g>
<g>
</g>
<g>
</g>
<g>
</g>
<g>
</g>
<g>
</g>
<g>
</g>
</svg>
