<?xml version="1.0" encoding="iso-8859-1"?>
<!-- Generator: Adobe Illustrator 19.0.0, SVG Export Plug-In . SVG Version: 6.00 Build 0)  -->
<svg xmlns="http://www.w3.org/2000/svg" xmlns:xlink="http://www.w3.org/1999/xlink" version="1.1" id="Layer_1" x="0px" y="0px" viewBox="0 0 512 512" style="enable-background:new 0 0 512 512;" xml:space="preserve">
<path style="fill:#B5E1F4;" d="M300.522,256h166.957c12.295,0,22.261,9.966,22.261,22.261v133.565H278.261V278.261  C278.261,265.966,288.227,256,300.522,256z"/>
<path style="fill:#64AF8F;" d="M489.739,456.348H22.261C9.966,456.348,0,446.382,0,434.087v-22.261  c0-12.295,9.966-22.261,22.261-22.261h467.478c12.295,0,22.261,9.966,22.261,22.261v22.261  C512,446.382,502.034,456.348,489.739,456.348z"/>
<path style="fill:#82CEAD;" d="M0,422.957v-11.13c0-12.295,9.966-22.261,22.261-22.261h467.478c12.295,0,22.261,9.966,22.261,22.261  v11.13H0z"/>
<path style="fill:#93D6BB;" d="M325.565,253.217v77.913c0,4.61-3.738,8.348-8.348,8.348s-8.348-3.738-8.348-8.348v-77.913  c0-4.61,3.738-8.348,8.348-8.348S325.565,248.607,325.565,253.217z M361.739,244.87c-4.61,0-8.348,3.738-8.348,8.348v44.522  c0,4.61,3.738,8.348,8.348,8.348s8.348-3.738,8.348-8.348v-44.522C370.087,248.607,366.349,244.87,361.739,244.87z M406.261,244.87  c-4.61,0-8.348,3.738-8.348,8.348v77.913c0,4.61,3.738,8.348,8.348,8.348c4.61,0,8.348-3.738,8.348-8.348v-77.913  C414.609,248.607,410.871,244.87,406.261,244.87z M450.783,244.87c-4.61,0-8.348,3.738-8.348,8.348v44.522  c0,4.61,3.738,8.348,8.348,8.348s8.348-3.738,8.348-8.348v-44.522C459.13,248.607,455.393,244.87,450.783,244.87z"/>
<path style="fill:#FFC0CF;" d="M512,55.652v77.913v38.957c0,21.515-17.441,38.957-38.957,38.957H294.957  c-21.515,0-38.957-17.441-38.957-38.957l0,0c0-21.515,17.441-38.957,38.957-38.957h139.13l0,0  C434.087,90.535,468.97,55.652,512,55.652L512,55.652z"/>
<path style="fill:#FF9CAB;" d="M512,128v5.565v38.957c0,21.515-17.441,38.957-38.957,38.957H294.957  c-21.515,0-38.957-17.441-38.957-38.957l0,0c0-8.28,2.59-15.95,6.994-22.261c7.04,10.089,18.726,16.696,31.962,16.696h178.087  C494.559,166.957,512,149.515,512,128z"/>
<g>
</g>
<g>
</g>
<g>
</g>
<g>
</g>
<g>
</g>
<g>
</g>
<g>
</g>
<g>
</g>
<g>
</g>
<g>
</g>
<g>
</g>
<g>
</g>
<g>
</g>
<g>
</g>
<g>
</g>
</svg>
