<?xml version="1.0" encoding="iso-8859-1"?>
<!-- Generator: Adobe Illustrator 19.0.0, SVG Export Plug-In . SVG Version: 6.00 Build 0)  -->
<svg xmlns="http://www.w3.org/2000/svg" xmlns:xlink="http://www.w3.org/1999/xlink" version="1.1" id="Layer_1" x="0px" y="0px" viewBox="0 0 512 512" style="enable-background:new 0 0 512 512;" xml:space="preserve">
<path style="fill:#A2CCDB;" d="M0,211.478v-61.217v-44.522c0-12.295,9.966-22.261,22.261-22.261h467.478  c12.295,0,22.261,9.966,22.261,22.261v44.522v61.217H0z"/>
<path style="fill:#D7F3FF;" d="M512,226.865c0,7.73-4.01,14.907-10.594,18.958l-134.102,82.524l-49.291,88.724  c-3.926,7.067-11.375,11.45-19.459,11.45h-85.108c-8.084,0-15.534-4.383-19.459-11.45l-49.291-88.724L10.594,245.823  C4.01,241.772,0,234.595,0,226.865v-76.604h512V226.865z"/>
<path style="fill:#B5E1F4;" d="M367.304,150.261v178.087l-49.291,88.724c-3.926,7.067-11.375,11.45-19.459,11.45h-85.108  c-8.084,0-15.534-4.383-19.459-11.45l-49.291-88.724V150.261H367.304z"/>
<path style="fill:#769CA5;" d="M228.174,116.87c0,4.61-3.738,8.348-8.348,8.348H30.609c-4.61,0-8.348-3.738-8.348-8.348  s3.738-8.348,8.348-8.348h189.217C224.436,108.522,228.174,112.259,228.174,116.87z"/>
<g>
</g>
<g>
</g>
<g>
</g>
<g>
</g>
<g>
</g>
<g>
</g>
<g>
</g>
<g>
</g>
<g>
</g>
<g>
</g>
<g>
</g>
<g>
</g>
<g>
</g>
<g>
</g>
<g>
</g>
</svg>
