<?xml version="1.0" encoding="iso-8859-1"?>
<!-- Generator: Adobe Illustrator 19.0.0, SVG Export Plug-In . SVG Version: 6.00 Build 0)  -->
<svg xmlns="http://www.w3.org/2000/svg" xmlns:xlink="http://www.w3.org/1999/xlink" version="1.1" id="Layer_1" x="0px" y="0px" viewBox="0 0 512 512" style="enable-background:new 0 0 512 512;" xml:space="preserve">
<path style="fill:#DBCBA1;" d="M0,324.99c0-116.61,94.531-211.141,211.141-211.141S422.282,208.38,422.282,324.99  c0,81.203-45.848,151.687-113.063,187.01H113.063C45.848,476.676,0,406.193,0,324.99z"/>
<path style="fill:#C1B291;" d="M211.141,485.065c-88.408,0-160.076-71.669-160.076-160.076s71.669-160.076,160.076-160.076  s160.076,71.669,160.076,160.076S299.549,485.065,211.141,485.065z"/>
<path style="fill:#A89B80;" d="M211.141,462.805c-76.113,0-137.815-61.702-137.815-137.815s61.702-137.815,137.815-137.815  s137.815,61.702,137.815,137.815S287.254,462.805,211.141,462.805z"/>
<path style="fill:#A7E5CB;" d="M456.348,27.826C456.348,12.458,468.806,0,484.174,0S512,12.458,512,27.826  s-12.458,27.826-27.826,27.826S456.348,43.194,456.348,27.826z M434.087,411.826L434.087,411.826  c-7.917,0-15.442,1.664-22.261,4.644v-4.644c0-30.736-24.917-55.652-55.652-55.652l0,0c-30.736,0-55.652,24.917-55.652,55.652v11.13  c-9.302-6.988-20.862-11.13-33.391-11.13l0,0c-30.736,0-55.652,24.917-55.652,55.652V512h89.043h22.261h55.652h33.391h77.913  v-44.522C489.739,436.743,464.823,411.826,434.087,411.826z M484.174,300.522c-15.368,0-27.826,12.458-27.826,27.826  s12.458,27.826,27.826,27.826S512,343.716,512,328.348S499.542,300.522,484.174,300.522z M411.826,233.739  c30.736,0,55.652-24.917,55.652-55.652s-24.917-55.652-55.652-55.652s-55.652,24.917-55.652,55.652S381.09,233.739,411.826,233.739z  "/>
<path style="fill:#D7F3FF;" d="M500.87,322.783c0,6.147-4.983,11.13-11.13,11.13s-11.13-4.983-11.13-11.13s4.983-11.13,11.13-11.13  S500.87,316.635,500.87,322.783z M489.739,33.762c6.147,0,11.13-4.983,11.13-11.13s-4.983-11.13-11.13-11.13  s-11.13,4.983-11.13,11.13S483.592,33.762,489.739,33.762z M267.13,422.957c-12.295,0-22.261,9.966-22.261,22.261  c0,12.295,9.966,22.261,22.261,22.261c12.295,0,22.261-9.966,22.261-22.261C289.391,432.923,279.425,422.957,267.13,422.957z   M367.304,367.304c-12.295,0-22.261,9.966-22.261,22.261c0,12.295,9.966,22.261,22.261,22.261c12.295,0,22.261-9.966,22.261-22.261  C389.565,377.271,379.599,367.304,367.304,367.304z M445.217,166.957c0-12.295-9.966-22.261-22.261-22.261  c-12.295,0-22.261,9.966-22.261,22.261s9.966,22.261,22.261,22.261C435.251,189.217,445.217,179.251,445.217,166.957z   M445.217,422.957c-12.295,0-22.261,9.966-22.261,22.261c0,12.295,9.966,22.261,22.261,22.261c12.295,0,22.261-9.966,22.261-22.261  C467.478,432.923,457.512,422.957,445.217,422.957z"/>
<path style="fill:#A89B80;" d="M512,503.652c0,4.61-3.738,8.348-8.348,8.348H8.348C3.738,512,0,508.262,0,503.652  s3.738-8.348,8.348-8.348h495.304C508.262,495.304,512,499.042,512,503.652z"/>
<path style="fill:#DBCBA1;" d="M320,324.99c0,4.61-3.738,8.348-8.348,8.348s-8.348-3.738-8.348-8.348  c0-52.976-43.099-96.076-96.076-96.076c-4.61,0-8.348-3.738-8.348-8.348c0-4.61,3.738-8.348,8.348-8.348  C269.411,212.218,320,262.807,320,324.99z"/>
<g>
</g>
<g>
</g>
<g>
</g>
<g>
</g>
<g>
</g>
<g>
</g>
<g>
</g>
<g>
</g>
<g>
</g>
<g>
</g>
<g>
</g>
<g>
</g>
<g>
</g>
<g>
</g>
<g>
</g>
</svg>
