<?xml version="1.0" encoding="iso-8859-1"?>
<!-- Generator: Adobe Illustrator 19.0.0, SVG Export Plug-In . SVG Version: 6.00 Build 0)  -->
<svg xmlns="http://www.w3.org/2000/svg" xmlns:xlink="http://www.w3.org/1999/xlink" version="1.1" id="Layer_1" x="0px" y="0px" viewBox="0 0 512 512" style="enable-background:new 0 0 512 512;" xml:space="preserve">
<path style="fill:#F4AB53;" d="M392.559,328.435l40.353,19.026c16.71,7.879,23.939,27.957,16.149,44.85l-0.007,0.014  c-7.794,16.898-27.664,24.209-44.379,16.328l-40.353-19.026c-16.71-7.879-23.939-27.957-16.149-44.85l0.007-0.014  C355.974,327.864,375.845,320.553,392.559,328.435z"/>
<path style="fill:#F4C064;" d="M512,336.516L512,336.516c0,18.647-14.949,33.763-33.391,33.763H311.652  c-15.534,0-28.589-10.724-32.321-25.249c-1.283-4.993-5.685-8.514-10.788-8.514H22.261C9.966,336.516,0,326.438,0,314.007v-78.78  v-78.78c0-12.432,9.966-22.509,22.261-22.509h246.283c5.102,0,9.505-3.521,10.788-8.514c3.732-14.525,16.787-25.249,32.321-25.249  h166.957c18.442,0,33.391,15.116,33.391,33.763l0,0c0,18.647-14.949,33.763-33.391,33.763c18.442,0,33.391,15.116,33.391,33.763l0,0  c0,18.647-14.949,33.763-33.391,33.763c18.442,0,33.391,15.116,33.391,33.763l0,0c0,18.647-14.949,33.763-33.391,33.763  C497.051,302.753,512,317.869,512,336.516z"/>
<path style="fill:#FFFFA6;" d="M290.019,219.39l-1.303,34.233c-0.469,12.292-10.819,21.876-23.111,21.397l-22.245-0.866  c-12.278-0.479-21.846-10.813-21.378-23.091l1.303-34.233c0.469-12.292,10.819-21.876,23.111-21.397l22.245,0.866  C280.919,196.778,290.487,207.112,290.019,219.39z"/>
<path style="fill:#64AF8F;" d="M244.87,122.559v225.335c0,6.147-4.983,11.13-11.13,11.13h-89.043c-6.147,0-11.13-4.983-11.13-11.13  V122.559c0-6.147,4.983-11.13,11.13-11.13h89.043C239.886,111.428,244.87,116.411,244.87,122.559z"/>
<path style="fill:#D7F3FF;" d="M256,178.707v113.038c0,12.295-9.966,22.261-22.261,22.261h-89.043  c-12.295,0-22.261-9.966-22.261-22.261V178.707c0-12.295,9.966-22.261,22.261-22.261h89.043  C246.034,156.446,256,166.413,256,178.707z"/>
<path style="fill:#F4FFF9;" d="M189.217,314.007h-44.522v-157.56h44.522V314.007z"/>
<path style="fill:#5B7A7F;" d="M219.826,235.085c0,4.661-3.736,8.44-8.348,8.44h-22.261c-4.611,0-8.348-3.779-8.348-8.44v-45.017  c0-4.661,3.736-8.44,8.348-8.44s8.348,3.779,8.348,8.44v36.577h13.913C216.09,226.645,219.826,230.424,219.826,235.085z"/>
<path style="fill:#F4AB53;" d="M478.609,167.7c8.465,0,16.189,3.191,22.075,8.44h-55.466c-4.611,0-8.348-3.779-8.348-8.44  c0-4.661,3.736-8.44,8.348-8.44h55.466C494.798,164.509,487.073,167.7,478.609,167.7z M445.217,226.785  c-4.611,0-8.348,3.779-8.348,8.44c0,4.661,3.736,8.44,8.348,8.44h55.466c-5.886-5.249-13.609-8.44-22.075-8.44  c8.465,0,16.189-3.191,22.075-8.44L445.217,226.785L445.217,226.785z M445.217,294.311c-4.611,0-8.348,3.779-8.348,8.44  s3.736,8.44,8.348,8.44h55.466c-5.886-5.249-13.609-8.44-22.075-8.44c8.465,0,16.189-3.191,22.075-8.44H445.217z"/>
<g>
</g>
<g>
</g>
<g>
</g>
<g>
</g>
<g>
</g>
<g>
</g>
<g>
</g>
<g>
</g>
<g>
</g>
<g>
</g>
<g>
</g>
<g>
</g>
<g>
</g>
<g>
</g>
<g>
</g>
</svg>
