<?xml version="1.0" encoding="iso-8859-1"?>
<!-- Generator: Adobe Illustrator 19.0.0, SVG Export Plug-In . SVG Version: 6.00 Build 0)  -->
<svg xmlns="http://www.w3.org/2000/svg" xmlns:xlink="http://www.w3.org/1999/xlink" version="1.1" id="Layer_1" x="0px" y="0px" viewBox="0 0 512 512" style="enable-background:new 0 0 512 512;" xml:space="preserve">
<path style="fill:#90B5BF;" d="M200.348,233.739v144.696H22.261C9.966,378.435,0,368.469,0,356.174V233.739  c0-36.883,29.9-66.783,66.783-66.783h66.783C170.448,166.957,200.348,196.856,200.348,233.739z"/>
<path style="fill:#769CA5;" d="M100.174,378.435H22.261C9.966,378.435,0,368.469,0,356.174V233.739  c0-36.883,29.9-66.783,66.783-66.783h33.391V378.435z"/>
<path style="fill:#A89B80;" d="M512,378.435V500.87c0,6.147-4.983,11.13-11.13,11.13H22.261c-6.147,0-11.13-4.983-11.13-11.13  V378.435c0-6.147,4.983-11.13,11.13-11.13H500.87C507.017,367.304,512,372.287,512,378.435z"/>
<path style="fill:#E5E5E5;" d="M144.696,384L144.696,384c0,15.368-12.458,27.826-27.826,27.826H94.609  c-15.368,0-27.826-12.458-27.826-27.826l0,0c0-15.368,12.458-27.826,27.826-27.826h22.261  C132.237,356.174,144.696,368.632,144.696,384z"/>
<path style="fill:#F4C064;" d="M144.696,89.043c0,24.588-19.933,44.522-44.522,44.522s-44.522-19.933-44.522-44.522  s19.933-44.522,44.522-44.522S144.696,64.455,144.696,89.043z M100.174,333.913H44.522V267.13c0-6.147-4.983-11.13-11.13-11.13H0  v77.913v22.261c0,12.295,9.966,22.261,22.261,22.261h22.261h55.652c12.295,0,22.261-9.966,22.261-22.261l0,0  C122.435,343.879,112.469,333.913,100.174,333.913z"/>
<path style="fill:#F4AB53;" d="M100.174,44.522v89.043c-24.588,0-44.522-19.933-44.522-44.522S75.586,44.522,100.174,44.522z"/>
<path style="fill:#C1C1C1;" d="M478.609,244.87v200.348c0,12.295-9.966,22.261-22.261,22.261h-256  c-12.295,0-22.261-9.966-22.261-22.261V244.87c0-12.295,9.966-22.261,22.261-22.261h256  C468.642,222.609,478.609,232.575,478.609,244.87z"/>
<path style="fill:#DBDBDB;" d="M478.609,244.87v200.348c0,12.295-9.966,22.261-22.261,22.261h-128v-244.87h128  C468.642,222.609,478.609,232.575,478.609,244.87z"/>
<path style="fill:#F7F7F7;" d="M368.071,377.64L372.87,512h-89.043l4.798-134.36c0.427-11.977,10.261-21.466,22.246-21.466h34.953  C357.809,356.174,367.643,365.663,368.071,377.64z"/>
<path style="fill:#DBDBDB;" d="M425.739,503.652c0,4.61-3.738,8.348-8.348,8.348H239.304c-4.61,0-8.348-3.738-8.348-8.348  s3.738-8.348,8.348-8.348h178.087C422.001,495.304,425.739,499.042,425.739,503.652z"/>
<path style="fill:#BBFFAB;" d="M367.304,122.435v44.522c0,6.147-4.983,11.13-11.13,11.13h-44.522c-6.147,0-11.13-4.983-11.13-11.13  v-44.522c0-6.147,4.983-11.13,11.13-11.13h44.522C362.321,111.304,367.304,116.287,367.304,122.435z"/>
<path style="fill:#D199D1;" d="M478.609,55.652v33.391c0,6.147-4.983,11.13-11.13,11.13h-33.391c-6.147,0-11.13-4.983-11.13-11.13  V55.652c0-6.147,4.983-11.13,11.13-11.13h33.391C473.626,44.522,478.609,49.505,478.609,55.652z"/>
<path style="fill:#A7E5CB;" d="M300.522,11.13v22.261c0,6.147-4.983,11.13-11.13,11.13H267.13c-6.147,0-11.13-4.983-11.13-11.13  V11.13C256,4.983,260.983,0,267.13,0h22.261C295.539,0,300.522,4.983,300.522,11.13z"/>
<g>
</g>
<g>
</g>
<g>
</g>
<g>
</g>
<g>
</g>
<g>
</g>
<g>
</g>
<g>
</g>
<g>
</g>
<g>
</g>
<g>
</g>
<g>
</g>
<g>
</g>
<g>
</g>
<g>
</g>
</svg>
