<?xml version="1.0" encoding="iso-8859-1"?>
<!-- Generator: Adobe Illustrator 19.0.0, SVG Export Plug-In . SVG Version: 6.00 Build 0)  -->
<svg xmlns="http://www.w3.org/2000/svg" xmlns:xlink="http://www.w3.org/1999/xlink" version="1.1" id="Layer_1" x="0px" y="0px" viewBox="0 0 512 512" style="enable-background:new 0 0 512 512;" xml:space="preserve">
<path style="fill:#F4AB53;" d="M398.349,113.24l-54.488,161.779l-63.281-21.34l61.601-182.872  c3.929-11.65,16.558-17.909,28.207-13.981l0,0C393.688,64.682,406.206,89.939,398.349,113.24z"/>
<path style="fill:#F4C064;" d="M0,289.391v-44.522c0-12.295,9.966-22.261,22.261-22.261h111.304H244.87h23.674  c5.102,0,9.505-3.482,10.788-8.42c3.732-14.365,16.787-24.971,32.321-24.971h66.783h33.391h66.783  c18.442,0,33.391,14.949,33.391,33.391l0,0C512,241.049,497.051,256,478.609,256C497.051,256,512,270.949,512,289.391l0,0  c0,18.441-14.949,33.391-33.391,33.391c18.442,0,33.391,14.949,33.391,33.391l0,0c0,18.442-14.949,33.391-33.391,33.391  c18.442,0,33.391,14.949,33.391,33.391l0,0c0,18.442-14.949,33.391-33.391,33.391H311.652c-15.534,0-28.589-10.606-32.321-24.971  c-1.283-4.939-5.685-8.42-10.788-8.42H244.87H133.565H22.261C9.966,422.956,0,412.99,0,400.695v-44.522"/>
<path style="fill:#F4AB53;" d="M500.684,314.435c-5.886,5.192-13.609,8.348-22.075,8.348c8.465,0,16.189,3.155,22.075,8.348h-66.597  c-4.61,0-8.348-3.738-8.348-8.348s3.738-8.348,8.348-8.348H500.684z M434.087,381.217c-4.61,0-8.348,3.738-8.348,8.348  s3.738,8.348,8.348,8.348h66.597c-5.886-5.192-13.609-8.348-22.075-8.348c8.465,0,16.189-3.155,22.075-8.348H434.087z   M500.684,247.652h-66.597c-4.61,0-8.348,3.738-8.348,8.348c0,4.61,3.738,8.348,8.348,8.348h66.597  c-5.886-5.192-13.609-8.348-22.075-8.348C487.073,256,494.798,252.844,500.684,247.652z"/>
<path style="fill:#90B5BF;" d="M166.957,233.739v178.087c0,12.295-9.966,22.261-22.261,22.261H22.261  C9.966,434.087,0,424.121,0,411.826V233.739c0-12.295,9.966-22.261,22.261-22.261h122.435  C156.99,211.478,166.957,221.444,166.957,233.739z"/>
<path style="fill:#C5EAFF;" d="M222.609,211.478v222.609c0,12.295-9.966,22.261-22.261,22.261h-55.652  c-12.295,0-22.261-9.966-22.261-22.261V211.478c0-12.295,9.966-22.261,22.261-22.261h55.652  C212.643,189.217,222.609,199.183,222.609,211.478z"/>
<path style="fill:#5B7A7F;" d="M189.217,406.261c0,9.22-7.475,16.696-16.696,16.696s-16.696-7.475-16.696-16.696  c0-9.22,7.475-16.696,16.696-16.696S189.217,397.04,189.217,406.261z"/>
<g>
</g>
<g>
</g>
<g>
</g>
<g>
</g>
<g>
</g>
<g>
</g>
<g>
</g>
<g>
</g>
<g>
</g>
<g>
</g>
<g>
</g>
<g>
</g>
<g>
</g>
<g>
</g>
<g>
</g>
</svg>
