<?xml version="1.0" encoding="iso-8859-1"?>
<!-- Generator: Adobe Illustrator 19.0.0, SVG Export Plug-In . SVG Version: 6.00 Build 0)  -->
<svg xmlns="http://www.w3.org/2000/svg" xmlns:xlink="http://www.w3.org/1999/xlink" version="1.1" id="Layer_1" x="0px" y="0px" viewBox="0 0 512.001 512.001" style="enable-background:new 0 0 512.001 512.001;" xml:space="preserve">
<path style="fill:#C1C1C1;" d="M456.347,503.652c0,4.61-3.738,8.348-8.348,8.348H314.434c-4.61,0-8.348-3.738-8.348-8.348  s3.738-8.348,8.348-8.348h133.565C452.61,495.305,456.347,499.042,456.347,503.652z M281.043,495.305h-33.391  c-4.61,0-8.348,3.738-8.348,8.348s3.738,8.348,8.348,8.348h33.391c4.61,0,8.348-3.738,8.348-8.348S285.653,495.305,281.043,495.305z   M105.405,118.33c1.629,1.631,3.767,2.445,5.902,2.445c2.136,0,4.273-0.815,5.902-2.445c3.26-3.26,3.26-8.546,0-11.805  L81.114,70.429c-3.26-3.261-8.546-3.26-11.805,0c-3.26,3.26-3.26,8.546,0,11.805L105.405,118.33z M138.346,127.661  c-3.26-3.26-8.546-3.26-11.805,0c-3.26,3.26-3.26,8.546,0,11.805l68.695,68.695c1.63,1.63,3.767,2.445,5.902,2.445  c2.136,0,4.273-0.815,5.902-2.445c3.26-3.26,3.26-8.546,0-11.805L138.346,127.661z M81.115,133.392c-3.259-3.26-8.545-3.26-11.805,0  c-3.26,3.26-3.26,8.546,0,11.805l94.445,94.445c1.63,1.631,3.767,2.445,5.902,2.445c2.136,0,4.273-0.815,5.902-2.445  c3.26-3.26,3.26-8.546,0-11.805L81.115,133.392z"/>
<path style="fill:#CEA05D;" d="M22.26,505.48L6.52,489.739c-8.693-8.693-8.693-22.788,0-31.481l337.677-337.782l47.222,47.222  L53.742,505.48C45.049,514.174,30.954,514.174,22.26,505.48z"/>
<path style="fill:#99774F;" d="M396.985,161.763L53.742,505.48c-8.693,8.693-22.788,8.693-31.481,0L6.52,489.739  c-1.814-1.814-3.226-3.87-4.283-6.056c8.291,4.009,18.546,2.597,25.425-4.283l343.243-343.718L396.985,161.763z"/>
<path style="fill:#5B7A7F;" d="M511.999,384L511.999,384c0,15.368-12.458,27.826-27.826,27.826h-5.565l-14.866,89.195  c-1.056,6.335-6.537,10.979-12.96,10.979s-11.904-4.644-12.96-10.979l-14.866-89.195h-5.565c-15.368,0-27.826-12.458-27.826-27.826  l0,0c0-15.368,12.458-27.826,27.826-27.826h66.783C499.541,356.174,511.999,368.633,511.999,384z M466.128,242.12l39.352-39.352  c8.694-8.694,8.694-22.788,0-31.481L388.983,54.789c-1.036-1.037-2.173-1.969-3.393-2.781L316.132,5.701  c-13.462-8.974-31.388-7.2-42.829,4.241l0,0c-11.441,11.441-13.216,29.367-4.241,42.829l46.305,69.458  c0.814,1.22,1.745,2.356,2.781,3.393L434.646,242.12C443.339,250.814,457.434,250.814,466.128,242.12z"/>
<path style="fill:#769CA5;" d="M467.064,209.702L350.566,93.204c-1.036-1.037-1.968-2.174-2.781-3.393L301.48,20.353  c-4.118-6.177-5.946-13.294-5.642-20.294c7-0.304,14.117,1.524,20.294,5.642l69.458,46.306c1.22,0.813,2.356,1.744,3.393,2.781  L505.48,171.287c8.694,8.694,8.694,22.788,0,31.481l-6.934,6.934C489.851,218.396,475.757,218.396,467.064,209.702z   M484.173,356.174h-66.783c-15.368,0-27.826,12.458-27.826,27.826l0,0c0,15.368,12.458,27.826,27.826,27.826h66.783  c15.368,0,27.826-12.458,27.826-27.826l0,0C511.999,368.633,499.541,356.174,484.173,356.174z"/>
<path style="fill:#90B5BF;" d="M511.999,384L511.999,384c0,1.907-0.193,3.767-0.558,5.565H390.122  c-0.365-1.799-0.558-3.66-0.558-5.565l0,0c0-15.368,12.458-27.826,27.826-27.826h66.783  C499.541,356.174,511.999,368.633,511.999,384z"/>
<g>
</g>
<g>
</g>
<g>
</g>
<g>
</g>
<g>
</g>
<g>
</g>
<g>
</g>
<g>
</g>
<g>
</g>
<g>
</g>
<g>
</g>
<g>
</g>
<g>
</g>
<g>
</g>
<g>
</g>
</svg>
