<?xml version="1.0" encoding="iso-8859-1"?>
<!-- Generator: Adobe Illustrator 19.0.0, SVG Export Plug-In . SVG Version: 6.00 Build 0)  -->
<svg xmlns="http://www.w3.org/2000/svg" xmlns:xlink="http://www.w3.org/1999/xlink" version="1.1" id="Layer_1" x="0px" y="0px" viewBox="0 0 512 512" style="enable-background:new 0 0 512 512;" xml:space="preserve">
<path style="fill:#CEA05D;" d="M411.826,55.652v22.261c0,12.295-9.966,22.261-22.261,22.261l0,0c-6.147,0-11.13,4.983-11.13,11.13  v89.043H89.043v-89.043c0-6.147-4.983-11.13-11.13-11.13l0,0c-12.295,0-22.261-9.966-22.261-22.261V55.652  c0-12.295,9.966-22.261,22.261-22.261h11.13h289.391h11.13C401.86,33.391,411.826,43.357,411.826,55.652z"/>
<path style="fill:#99774F;" d="M333.913,144.696v22.261c0,36.883-29.9,66.783-66.783,66.783h-66.783  c-36.883,0-66.783-29.9-66.783-66.783v-22.261c0-36.883,29.9-66.783,66.783-66.783h66.783  C304.013,77.913,333.913,107.813,333.913,144.696z"/>
<path style="fill:#FFC248;" d="M242.087,8.348v100.174c0,4.61-3.738,8.348-8.348,8.348s-8.348-3.738-8.348-8.348V8.348  c0-4.61,3.738-8.348,8.348-8.348S242.087,3.738,242.087,8.348z M189.217,0c-4.61,0-8.348,3.738-8.348,8.348v100.174  c0,4.61,3.738,8.348,8.348,8.348c4.61,0,8.348-3.738,8.348-8.348V8.348C197.565,3.738,193.828,0,189.217,0z M278.261,0  c-4.61,0-8.348,3.738-8.348,8.348v100.174c0,4.61,3.738,8.348,8.348,8.348s8.348-3.738,8.348-8.348V8.348  C286.609,3.738,282.871,0,278.261,0z"/>
<path style="fill:#E55D30;" d="M55.652,422.957h66.783v55.652c0,18.442-14.949,33.391-33.391,33.391s-33.391-14.949-33.391-33.391  V422.957z M345.043,478.609c0,18.442,14.949,33.391,33.391,33.391s33.391-14.949,33.391-33.391v-55.652h-66.783V478.609z   M489.739,222.609h-44.522v89.043h44.522c12.295,0,22.261-9.966,22.261-22.261V244.87C512,232.575,502.034,222.609,489.739,222.609z  "/>
<path style="fill:#FF8D40;" d="M467.478,211.478v222.609c0,24.588-19.934,44.522-44.522,44.522H44.522  C19.933,478.609,0,458.675,0,434.087V211.478c0-24.588,19.933-44.522,44.522-44.522h378.435  C447.545,166.957,467.478,186.89,467.478,211.478z"/>
<path style="fill:#FFC248;" d="M467.478,211.478v61.217H0v-61.217c0-24.588,19.933-44.522,44.522-44.522h378.435  C447.545,166.957,467.478,186.89,467.478,211.478z"/>
<path style="fill:#FFEE92;" d="M289.391,294.957H178.087c-12.295,0-22.261-9.966-22.261-22.261v-11.13  c0-12.295,9.966-22.261,22.261-22.261h111.304c12.295,0,22.261,9.966,22.261,22.261v11.13  C311.652,284.99,301.686,294.957,289.391,294.957z"/>
<g>
</g>
<g>
</g>
<g>
</g>
<g>
</g>
<g>
</g>
<g>
</g>
<g>
</g>
<g>
</g>
<g>
</g>
<g>
</g>
<g>
</g>
<g>
</g>
<g>
</g>
<g>
</g>
<g>
</g>
</svg>
